<svg width="310" height="240" viewBox="0 0 310 240" fill="none" xmlns="http://www.w3.org/2000/svg">
<path fill-rule="evenodd" clip-rule="evenodd" d="M179.121 36.1017C178.695 38.7995 180.044 41.4973 181.251 43.2722C181.961 44.2661 182.67 45.1181 183.167 45.686C184.374 44.5501 186.362 42.6332 187.782 40.8584C191.403 36.5987 191.545 31.345 188.208 25.0975C187.001 22.8257 185.51 20.8378 184.303 19.3469C184.232 21.1218 184.09 23.2516 183.522 25.3815C183.025 27.3693 182.032 29.2152 181.109 31.0611C180.257 32.8359 179.405 34.5398 179.121 36.1017ZM183.167 49.0938C182.812 49.0938 182.457 48.9518 182.244 48.7388C181.961 48.4548 175.216 42.4203 176.281 35.6048C176.565 33.6169 177.559 31.771 178.553 29.7122C179.405 28.0793 180.257 26.3754 180.754 24.6005C181.89 20.1989 181.322 15.7262 181.322 15.6552C181.251 15.0872 181.535 14.4483 182.103 14.1643C182.67 13.8803 183.309 13.9513 183.735 14.3773C183.877 14.5193 187.924 18.282 190.764 23.6066C194.669 30.9191 194.456 37.4506 190.054 42.6332C187.711 45.402 184.303 48.5258 184.161 48.6678C183.877 49.0228 183.522 49.0938 183.167 49.0938Z" fill="#AD843E"/>
<path fill-rule="evenodd" clip-rule="evenodd" d="M185.154 47.6751C185.722 48.2431 186.574 48.953 187.639 49.663C189.414 50.8699 192.112 52.2188 194.809 51.7928C196.3 51.5798 198.004 50.6569 199.85 49.734C201.625 48.811 203.471 47.8881 205.53 47.3202C207.659 46.7522 209.789 46.5392 211.564 46.5392C210.073 45.3323 208.085 43.8414 205.814 42.6345C199.566 39.2977 194.312 39.4397 190.053 43.0605C188.278 44.4804 186.29 46.4682 185.154 47.6751ZM193.744 54.7036C187.568 54.7036 182.385 48.953 182.101 48.6691C181.604 48.1011 181.604 47.3201 182.101 46.7522C182.243 46.6102 185.367 43.2025 188.136 40.8596C193.318 36.4579 199.85 36.2449 207.162 40.1497C212.416 42.9895 216.25 47.0362 216.392 47.1782C216.818 47.6041 216.889 48.2431 216.605 48.811C216.321 49.379 215.753 49.663 215.114 49.592C215.043 49.592 210.57 49.024 206.169 50.16C204.465 50.5859 202.761 51.5088 201.128 52.3608C199.14 53.3547 197.223 54.3486 195.235 54.6326C194.738 54.6326 194.241 54.7036 193.744 54.7036Z" fill="#AD843E"/>
<path fill-rule="evenodd" clip-rule="evenodd" d="M191.188 27.511C190.62 27.511 190.123 27.227 189.91 26.6591C189.555 25.9491 189.91 25.0972 190.62 24.7422C190.762 24.6712 194.311 23.0383 198.145 22.6833C201.979 22.2574 206.168 23.4643 206.31 23.5353C207.091 23.7483 207.517 24.5292 207.304 25.3102C207.091 26.0911 206.31 26.5171 205.529 26.3041C205.458 26.3041 201.695 25.1682 198.429 25.5231C195.092 25.8781 191.827 27.369 191.827 27.369C191.614 27.511 191.401 27.511 191.188 27.511Z" fill="#AD843E"/>
<path fill-rule="evenodd" clip-rule="evenodd" d="M204.747 41.0716C204.534 41.0716 204.321 41.0006 204.179 40.9296C203.469 40.5746 203.114 39.7227 203.469 39.0127C203.469 38.9417 204.96 35.747 205.315 32.4102C205.67 29.1444 204.534 25.3107 204.534 25.3107C204.321 24.5298 204.747 23.7488 205.528 23.5358C206.309 23.3229 207.09 23.7488 207.303 24.5298C207.374 24.7428 208.581 28.9314 208.155 32.6942C207.729 36.5279 206.167 40.0777 206.096 40.2196C205.812 40.7876 205.315 41.0716 204.747 41.0716Z" fill="#AD843E"/>
<path fill-rule="evenodd" clip-rule="evenodd" d="M86.6834 117.107C88.1743 118.314 90.1621 119.805 92.434 121.012C98.6815 124.349 103.935 124.207 108.195 120.586C109.97 119.095 111.887 117.107 113.022 115.971C112.455 115.403 111.603 114.693 110.538 113.983C108.763 112.776 106.065 111.427 103.367 111.853C101.876 112.066 100.172 112.989 98.3266 113.912C96.5517 114.835 94.7058 115.758 92.647 116.326C90.5171 116.823 88.3873 117.036 86.6834 117.107ZM100.74 126.265C97.6876 126.265 94.4218 125.342 91.0141 123.497C85.7605 120.657 81.9267 116.61 81.7847 116.468C81.3588 116.042 81.2878 115.403 81.5718 114.835C81.8557 114.267 82.4237 113.983 83.0627 114.054C83.1336 114.054 87.6063 114.622 92.008 113.486C93.7119 113.06 95.4158 112.137 97.1196 111.285C99.1075 110.292 101.024 109.298 103.012 109.014C109.828 107.949 115.862 114.622 116.146 114.977C116.643 115.545 116.643 116.326 116.146 116.894C116.004 117.036 112.881 120.444 110.112 122.787C107.272 125.13 104.148 126.265 100.74 126.265Z" fill="#AD843E"/>
<path fill-rule="evenodd" clip-rule="evenodd" d="M114.941 117.888C113.734 119.024 111.746 120.941 110.256 122.716C106.635 126.976 106.493 132.229 109.83 138.477C111.036 140.749 112.527 142.736 113.734 144.227C113.805 142.452 113.947 140.323 114.515 138.193C115.012 136.205 116.006 134.359 116.929 132.513C117.852 130.738 118.704 129.034 118.988 127.472C119.414 124.775 118.065 122.077 116.858 120.302C116.148 119.308 115.438 118.527 114.941 117.888ZM115.367 149.481C115.012 149.481 114.657 149.339 114.373 149.126C114.231 148.984 110.185 145.221 107.345 139.897C103.44 132.584 103.653 126.053 108.055 120.87C110.398 118.101 113.805 114.977 113.947 114.835C114.515 114.338 115.296 114.338 115.864 114.835C116.148 115.119 122.893 121.154 121.828 127.969C121.544 129.957 120.55 131.803 119.556 133.862C118.704 135.495 117.852 137.199 117.355 138.903C116.219 143.304 116.787 147.777 116.787 147.848C116.858 148.416 116.574 149.055 116.006 149.339C115.864 149.41 115.58 149.481 115.367 149.481Z" fill="#AD843E"/>
<path fill-rule="evenodd" clip-rule="evenodd" d="M92.2233 140.111C91.5843 140.111 91.0164 139.685 90.8744 139.117C90.8034 138.904 89.5965 134.715 90.0225 130.953C90.4484 127.119 92.0103 123.569 92.0813 123.427C92.4363 122.717 93.2882 122.362 93.9982 122.717C94.7081 123.072 94.9921 123.924 94.7081 124.634C94.7081 124.705 93.2172 127.9 92.8622 131.237C92.5073 134.502 93.6432 138.336 93.6432 138.336C93.8562 139.117 93.4302 139.898 92.6493 140.111C92.5073 140.04 92.3653 140.111 92.2233 140.111Z" fill="#AD843E"/>
<path fill-rule="evenodd" clip-rule="evenodd" d="M98.3982 140.963C95.1324 140.963 92.0086 140.04 91.7956 140.04C91.0147 139.827 90.5887 139.046 90.8017 138.265C91.0147 137.484 91.7956 137.058 92.5766 137.271C92.6476 137.271 96.4103 138.407 99.6761 138.052C103.013 137.697 106.279 136.206 106.279 136.206C106.989 135.851 107.84 136.206 108.195 136.916C108.55 137.626 108.195 138.478 107.486 138.833C107.344 138.904 103.794 140.537 99.96 140.892C99.4631 140.963 98.9661 140.963 98.3982 140.963Z" fill="#AD843E"/>
<path fill-rule="evenodd" clip-rule="evenodd" d="M192.183 20.4833H192.112C191.331 20.4123 190.763 19.7734 190.763 18.9924C190.834 17.9275 190.408 15.5847 188.491 13.2418C187 11.396 184.018 9.12415 178.623 8.48519C177.842 8.4142 177.274 7.70425 177.345 6.92331C177.416 6.14236 178.126 5.5744 178.907 5.6454C185.225 6.35534 188.775 9.12415 190.621 11.396C191.686 12.6029 192.467 14.0938 192.964 15.5137C193.39 16.7916 193.603 18.0695 193.532 19.1344C193.532 19.9154 192.893 20.4833 192.183 20.4833Z" fill="#AD843E"/>
<path fill-rule="evenodd" clip-rule="evenodd" d="M161.939 37.8772C161.087 37.8772 160.235 37.8062 159.454 37.7352C156.828 37.3802 152.568 35.7473 148.876 32.9076C145.61 30.3517 141.564 26.021 141.209 19.4185C140.996 16.0818 141.422 10.9701 144.404 5.57451C146.178 2.30874 148.095 0.53388 148.166 0.39189C148.734 -0.176069 149.657 -0.10508 150.154 0.462879C150.722 1.03084 150.651 1.95377 150.083 2.45074C150.083 2.45074 148.379 4.08362 146.817 6.99441C144.687 10.8281 143.765 14.9458 144.049 19.2055C144.616 29.4288 156.047 34.3275 159.88 34.8244C163.785 35.3924 169.181 34.5404 171.666 30.4227C173.511 27.3699 172.517 23.3942 169.465 21.5484C168.329 20.8384 167.051 20.6964 165.773 20.9804C164.495 21.2644 163.43 22.1163 162.72 23.1813C162.223 24.0332 162.081 24.9561 162.294 25.9501C162.507 26.873 163.146 27.6539 163.927 28.2219C164.495 28.5769 165.205 28.7189 165.915 28.5059C166.625 28.3639 167.193 27.9379 167.548 27.299C167.974 26.589 168.826 26.376 169.536 26.802C170.246 27.228 170.459 28.0799 170.033 28.7899C169.252 30.0678 168.045 30.9197 166.625 31.2747C165.205 31.6297 163.714 31.4167 162.507 30.6357C161.016 29.7128 159.951 28.2929 159.596 26.66C159.17 24.9561 159.454 23.2523 160.306 21.7614C161.371 19.9865 163.075 18.7086 165.063 18.2116C167.051 17.7146 169.181 17.9986 170.956 19.1345C175.357 21.7614 176.777 27.5119 174.15 31.9846C171.382 36.3863 166.27 37.8772 161.939 37.8772Z" fill="#AD843E"/>
<path fill-rule="evenodd" clip-rule="evenodd" d="M136.241 37.8762C131.91 37.8762 126.799 36.3853 124.101 31.9126C121.474 27.511 122.894 21.7604 127.296 19.0626C130.988 16.8617 135.744 17.9976 137.945 21.6894C139.791 24.7422 138.797 28.7179 135.744 30.5637C133.188 32.1256 129.781 31.2737 128.219 28.7179C127.793 28.0079 128.006 27.156 128.716 26.73C129.426 26.3041 130.278 26.517 130.704 27.227C131.059 27.7949 131.626 28.2209 132.336 28.4339C133.046 28.5759 133.685 28.5049 134.324 28.1499C136.028 27.085 136.596 24.8842 135.531 23.1803C134.111 20.8374 131.13 20.1275 128.787 21.5474C125.734 23.3932 124.74 27.369 126.586 30.4217C127.935 32.6936 131.13 34.9654 136.028 34.9654C136.738 34.9654 137.519 34.8944 138.3 34.8234C142.134 34.2555 153.564 29.4278 154.132 19.2046C154.416 14.9449 153.422 10.8272 151.363 6.99343C149.801 4.08263 148.097 2.44976 148.097 2.44976C147.529 1.8818 147.529 1.02986 148.026 0.461896C148.594 -0.106063 149.446 -0.106057 150.014 0.390907C150.085 0.461902 152.002 2.30776 153.777 5.57353C155.41 8.55531 157.327 13.383 156.972 19.4175C156.617 25.9491 152.57 30.3507 149.304 32.9066C145.541 35.7464 141.282 37.3793 138.726 37.7342C137.945 37.8052 137.093 37.8762 136.241 37.8762Z" fill="#AD843E"/>
<path fill-rule="evenodd" clip-rule="evenodd" d="M162.862 4.50881C163.217 6.63866 163.998 9.90444 165.702 11.3953C166.696 12.2473 167.974 12.6022 169.607 12.3893C170.317 12.3183 170.885 12.1763 171.311 12.0343C171.524 10.8274 171.879 8.12956 170.033 6.56767C168.329 5.00579 165.063 4.57981 162.862 4.50881ZM168.755 15.3C166.838 15.3 165.134 14.6611 163.785 13.5252C162.294 12.1763 161.158 9.97543 160.449 7.06464C159.952 4.93479 159.81 3.23091 159.81 3.15992C159.81 2.80494 159.952 2.37897 160.165 2.09499C160.449 1.81101 160.803 1.66902 161.158 1.59803C161.229 1.59803 163.004 1.52703 165.134 1.74002C168.116 2.09499 170.459 3.01792 171.95 4.36683C173.512 5.78673 174.364 7.84558 174.364 10.3304C174.364 12.1053 173.867 13.4542 173.867 13.5252C173.725 13.8802 173.441 14.2351 173.086 14.3771C173.015 14.3771 171.666 15.0161 169.962 15.229C169.536 15.3 169.181 15.3 168.755 15.3Z" fill="#AD843E"/>
<path fill-rule="evenodd" clip-rule="evenodd" d="M172.803 32.6232C172.519 32.6232 172.235 32.5522 172.022 32.4102C171.383 31.9842 171.17 31.0613 171.596 30.4223C173.939 26.8726 174.649 23.0388 173.655 18.9921C172.874 15.9394 171.383 13.9515 171.383 13.9515C170.886 13.3125 171.028 12.4606 171.667 11.9636C172.306 11.4667 173.158 11.6087 173.655 12.2476C173.726 12.3186 175.501 14.6614 176.423 18.2112C177.275 21.5479 177.559 26.5886 174.01 31.9842C173.726 32.4102 173.3 32.6232 172.803 32.6232Z" fill="#AD843E"/>
<path fill-rule="evenodd" clip-rule="evenodd" d="M126.869 12.0352C128.076 12.3901 130.703 13.0291 132.478 11.3962C134.181 9.90531 135.033 6.63953 135.317 4.50969C133.116 4.58068 129.851 5.07765 128.147 6.56854C126.301 8.13043 126.585 10.8282 126.869 12.0352ZM129.354 15.3009C128.999 15.3009 128.573 15.3009 128.147 15.2299C126.372 15.0169 125.094 14.449 125.023 14.378C124.668 14.236 124.384 13.881 124.242 13.526C124.242 13.4551 123.745 12.1061 123.745 10.3313C123.745 7.84646 124.526 5.7876 126.159 4.3677C127.65 3.01879 129.922 2.16686 132.974 1.74089C135.104 1.45691 136.879 1.52791 136.95 1.5989C137.305 1.5989 137.66 1.81188 137.944 2.09586C138.228 2.37984 138.299 2.73482 138.299 3.16079C138.299 3.23178 138.157 4.93566 137.66 7.06551C136.95 9.9763 135.814 12.1771 134.323 13.526C133.045 14.733 131.342 15.3009 129.354 15.3009Z" fill="#AD843E"/>
<path fill-rule="evenodd" clip-rule="evenodd" d="M125.379 32.6245C124.882 32.6245 124.456 32.4116 124.172 31.9856C120.622 26.59 120.906 21.5493 121.758 18.2126C122.681 14.6628 124.456 12.32 124.527 12.249C125.024 11.6101 125.876 11.5391 126.515 11.965C127.154 12.462 127.225 13.3139 126.799 13.9529C126.799 13.9529 125.237 16.0117 124.527 18.9935C123.533 22.9692 124.243 26.803 126.586 30.4237C127.012 31.0627 126.87 31.9856 126.16 32.4116C125.876 32.5536 125.592 32.6245 125.379 32.6245Z" fill="#AD843E"/>
<path fill-rule="evenodd" clip-rule="evenodd" d="M149.091 31.9137C148.31 31.9137 147.671 31.2747 147.671 30.4938V19.9865C147.671 19.2056 148.31 18.5667 149.091 18.5667C149.872 18.5667 150.511 19.2056 150.511 19.9865V30.4938C150.511 31.2747 149.872 31.9137 149.091 31.9137Z" fill="#AD843E"/>
<path fill-rule="evenodd" clip-rule="evenodd" d="M149.091 163.681C148.736 163.681 148.31 163.539 148.026 163.255C147.458 162.687 147.529 161.765 148.097 161.268C148.097 161.268 149.801 159.635 151.363 156.724C153.493 152.89 154.416 148.772 154.132 144.513C153.564 134.289 142.134 129.391 138.3 128.894C134.395 128.326 129 129.178 126.515 133.296C125.592 134.786 125.379 136.49 125.805 138.194C126.231 139.898 127.296 141.318 128.716 142.17C129.851 142.88 131.129 143.022 132.407 142.738C133.685 142.454 134.75 141.602 135.389 140.537C135.886 139.685 136.028 138.762 135.815 137.768C135.602 136.845 134.963 136.064 134.182 135.496C133.614 135.141 132.904 134.999 132.194 135.212C131.484 135.354 130.916 135.78 130.561 136.419C130.135 137.129 129.284 137.342 128.574 136.916C127.864 136.49 127.651 135.638 128.077 134.928C128.858 133.651 130.064 132.799 131.484 132.444C132.904 132.089 134.395 132.302 135.602 133.083C137.093 134.006 138.158 135.425 138.513 137.058C138.939 138.762 138.655 140.466 137.803 141.957C136.738 143.732 135.034 145.01 133.046 145.507C131.058 146.004 128.929 145.72 127.154 144.584C125.024 143.306 123.533 141.247 122.894 138.833C122.326 136.419 122.681 133.935 123.959 131.805C127.154 126.48 133.827 125.415 138.584 126.054C141.211 126.409 145.47 128.042 149.162 130.882C152.428 133.438 156.475 137.768 156.83 144.371C157.043 147.708 156.617 152.819 153.635 158.215C151.86 161.481 149.943 163.255 149.872 163.397C149.801 163.539 149.446 163.681 149.091 163.681Z" fill="#AD843E"/>
<path fill-rule="evenodd" clip-rule="evenodd" d="M149.088 163.679C148.733 163.679 148.378 163.537 148.094 163.253C148.023 163.182 146.106 161.337 144.331 158.071C142.699 155.089 140.782 150.261 141.137 144.227C141.492 137.695 145.538 133.294 148.804 130.738C152.496 127.898 156.827 126.265 159.382 125.91C164.139 125.271 170.813 126.336 174.007 131.661C175.285 133.79 175.711 136.275 175.072 138.689C174.504 141.103 172.942 143.162 170.813 144.44C169.038 145.505 166.979 145.86 164.92 145.363C162.932 144.866 161.228 143.588 160.163 141.813C159.24 140.322 159.027 138.618 159.453 136.914C159.879 135.21 160.944 133.79 162.364 132.939C164.92 131.377 168.328 132.229 169.89 134.784C170.316 135.494 170.103 136.346 169.393 136.772C168.683 137.198 167.831 136.985 167.405 136.275C166.624 135.068 165.062 134.642 163.784 135.352C162.932 135.849 162.364 136.63 162.151 137.624C161.938 138.547 162.08 139.541 162.577 140.393C163.287 141.529 164.352 142.31 165.63 142.594C166.908 142.878 168.186 142.736 169.322 142.026C170.813 141.103 171.877 139.683 172.232 138.05C172.658 136.346 172.374 134.642 171.522 133.152C169.961 130.596 165.985 127.898 159.737 128.75C155.904 129.318 144.473 134.145 143.905 144.369C143.621 148.628 144.615 152.746 146.674 156.58C148.236 159.491 149.94 161.124 149.94 161.124C150.508 161.691 150.508 162.543 150.011 163.111C149.798 163.466 149.443 163.679 149.088 163.679Z" fill="#AD843E"/>
<path fill-rule="evenodd" clip-rule="evenodd" d="M125.663 151.965C125.237 151.965 124.811 151.752 124.527 151.397C124.456 151.326 122.681 148.983 121.758 145.434C120.906 142.097 120.622 137.056 124.172 131.661C124.598 131.022 125.521 130.809 126.16 131.235C126.799 131.661 127.012 132.583 126.586 133.222C124.172 136.843 123.533 140.677 124.598 144.724C125.379 147.705 126.87 149.693 126.87 149.693C127.367 150.332 127.225 151.184 126.586 151.681C126.302 151.823 125.947 151.965 125.663 151.965Z" fill="#AD843E"/>
<path fill-rule="evenodd" clip-rule="evenodd" d="M172.518 151.966C172.234 151.966 171.879 151.895 171.666 151.682C171.027 151.185 170.956 150.333 171.382 149.694C171.382 149.694 172.944 147.706 173.654 144.653C174.648 140.678 173.938 136.844 171.595 133.223C171.169 132.584 171.311 131.661 172.021 131.235C172.66 130.809 173.583 130.951 174.009 131.661C177.558 137.057 177.274 142.098 176.422 145.434C175.499 148.984 173.725 151.327 173.654 151.398C173.37 151.753 172.944 151.966 172.518 151.966Z" fill="#AD843E"/>
<path fill-rule="evenodd" clip-rule="evenodd" d="M149.091 145.08C148.31 145.08 147.671 144.441 147.671 143.66V133.153C147.671 132.372 148.31 131.733 149.091 131.733C149.872 131.733 150.511 132.372 150.511 133.153V143.66C150.511 144.441 149.872 145.08 149.091 145.08Z" fill="#AD843E"/>
<path fill-rule="evenodd" clip-rule="evenodd" d="M203.757 108.092C202.053 108.092 200.42 107.666 198.929 106.743C193.604 103.548 192.539 96.8744 193.178 92.1178C193.533 89.4909 195.166 85.2312 198.006 81.5395C200.562 78.2737 204.893 74.227 211.495 73.8721C214.832 73.6591 219.943 74.0851 225.339 77.0668C228.605 78.8417 230.38 80.7586 230.522 80.8296C231.09 81.3975 231.019 82.3205 230.451 82.8174C229.883 83.3854 228.96 83.3144 228.463 82.7464C228.392 82.6754 226.759 81.0426 223.919 79.4807C220.085 77.3508 215.968 76.4279 211.708 76.7119C201.485 77.2798 196.586 88.71 196.089 92.5437C195.521 96.4484 196.373 101.844 200.491 104.329C201.982 105.252 203.686 105.465 205.389 105.039C207.093 104.613 208.513 103.548 209.365 102.128C210.785 99.7852 210.004 96.8034 207.732 95.3835C206.028 94.3186 203.757 94.8866 202.763 96.5904C201.982 97.7974 202.408 99.4302 203.686 100.211C204.396 100.637 204.609 101.489 204.183 102.199C203.757 102.909 202.905 103.122 202.195 102.696C199.639 101.134 198.787 97.7264 200.349 95.1705C201.272 93.6796 202.692 92.6147 204.325 92.2597C206.028 91.8338 207.732 92.1178 209.223 93.0407C212.915 95.2415 214.051 99.9982 211.85 103.69C210.572 105.82 208.513 107.311 206.099 107.95C205.247 108.021 204.467 108.092 203.757 108.092Z" fill="#AD843E"/>
<path fill-rule="evenodd" clip-rule="evenodd" d="M212.986 89.7735C212.489 89.7735 211.992 89.7735 211.495 89.7025C204.963 89.3475 200.562 85.3008 198.006 82.0351C195.166 78.3433 193.533 74.0126 193.178 71.4568C192.539 66.7002 193.604 60.0266 198.929 56.8319C201.059 55.554 203.544 55.128 205.957 55.7669C208.371 56.3349 210.43 57.8968 211.708 60.0266C213.909 63.7184 212.773 68.475 209.081 70.6759C206.028 72.5217 202.053 71.5278 200.207 68.475C198.645 65.9192 199.497 62.5115 202.053 60.9496C202.763 60.5236 203.615 60.7366 204.041 61.4465C204.467 62.1565 204.254 63.0084 203.544 63.4344C202.337 64.2153 201.911 65.7772 202.621 67.0551C203.686 68.759 205.886 69.327 207.59 68.2621C209.933 66.8422 210.643 63.8604 209.223 61.5175C208.3 60.0266 206.88 58.9617 205.247 58.6067C203.544 58.1808 201.84 58.4648 200.349 59.3167C197.793 60.8786 195.095 64.8543 195.947 71.1018C196.515 74.9356 201.343 86.3657 211.566 86.9337C215.826 87.2177 219.943 86.2238 223.777 84.1649C226.688 82.603 228.321 80.8991 228.321 80.8991C228.889 80.3312 229.741 80.3312 230.309 80.8281C230.877 81.3961 230.877 82.248 230.38 82.816C230.309 82.887 228.463 84.8039 225.197 86.5787C222.641 88.0696 218.311 89.7735 212.986 89.7735Z" fill="#AD843E"/>
<path fill-rule="evenodd" clip-rule="evenodd" d="M218.876 104.045C220.083 104.258 222.781 104.613 224.343 102.767C225.834 101.063 226.331 97.7263 226.402 95.5965C224.272 95.9515 221.006 96.7324 219.515 98.4363C218.663 99.4302 218.308 100.708 218.521 102.341C218.592 103.051 218.734 103.619 218.876 104.045ZM220.651 107.098H220.58C218.805 107.098 217.456 106.601 217.385 106.601C217.03 106.459 216.675 106.175 216.533 105.82C216.533 105.749 215.894 104.4 215.681 102.696C215.397 100.282 215.965 98.1523 217.385 96.5194C218.734 95.0285 220.935 93.8926 223.846 93.1827C225.976 92.6857 227.679 92.5437 227.75 92.5437C228.105 92.5437 228.531 92.6857 228.815 92.8987C229.099 93.1827 229.241 93.5376 229.312 93.8926C229.312 93.9636 229.383 95.7385 229.17 97.8683C228.815 100.85 227.892 103.193 226.544 104.684C225.053 106.246 223.065 107.098 220.651 107.098Z" fill="#AD843E"/>
<path fill-rule="evenodd" clip-rule="evenodd" d="M208.369 109.723C205.6 109.723 202.263 109.013 198.856 106.742C198.217 106.316 198.004 105.393 198.43 104.754C198.856 104.115 199.779 103.902 200.417 104.328C204.038 106.742 207.872 107.38 211.919 106.316C214.9 105.535 216.888 104.044 216.888 104.044C217.527 103.547 218.379 103.689 218.876 104.328C219.373 104.967 219.231 105.819 218.592 106.316C218.521 106.387 216.178 108.161 212.629 109.084C211.422 109.439 210.002 109.723 208.369 109.723Z" fill="#AD843E"/>
<path fill-rule="evenodd" clip-rule="evenodd" d="M218.876 59.6006C218.521 60.8075 217.882 63.4343 219.515 65.2092C221.006 66.913 224.272 67.765 226.402 68.049C226.331 65.8481 225.834 62.5824 224.343 60.8785C222.781 59.0326 220.083 59.3166 218.876 59.6006ZM227.821 71.0308H227.75C227.679 71.0308 225.976 70.8888 223.846 70.3918C220.864 69.6819 218.734 68.5459 217.385 67.055C215.965 65.4932 215.397 63.3633 215.681 60.8785C215.894 59.1036 216.462 57.8257 216.533 57.7547C216.675 57.3997 217.03 57.1157 217.385 56.9738C217.456 56.9738 218.805 56.4768 220.58 56.4768C223.065 56.4768 225.124 57.2577 226.544 58.8906C227.892 60.3815 228.744 62.6534 229.17 65.7061C229.454 67.836 229.383 69.6109 229.312 69.6819C229.312 70.0368 229.099 70.3918 228.815 70.6758C228.531 70.8888 228.176 71.0308 227.821 71.0308Z" fill="#AD843E"/>
<path fill-rule="evenodd" clip-rule="evenodd" d="M217.812 59.8143C217.528 59.8143 217.173 59.7433 216.96 59.5303C216.889 59.5303 214.901 57.9685 211.919 57.2585C207.944 56.2646 204.11 56.9745 200.489 59.3174C199.85 59.7433 198.927 59.6013 198.501 58.8914C198.075 58.2524 198.217 57.3295 198.927 56.9035C204.323 53.3538 209.364 53.6378 212.7 54.4897C216.25 55.4126 218.593 57.1875 218.664 57.2585C219.303 57.7555 219.374 58.6074 218.948 59.2464C218.664 59.6013 218.238 59.8143 217.812 59.8143Z" fill="#AD843E"/>
<path fill-rule="evenodd" clip-rule="evenodd" d="M210.926 83.2424H200.419C199.638 83.2424 198.999 82.6034 198.999 81.8225C198.999 81.0415 199.638 80.4026 200.419 80.4026H210.926C211.707 80.4026 212.346 81.0415 212.346 81.8225C212.346 82.6034 211.707 83.2424 210.926 83.2424Z" fill="#AD843E"/>
<path fill-rule="evenodd" clip-rule="evenodd" d="M85.1961 89.7745C81.9304 89.7745 77.4577 89.1356 72.772 86.5088C69.5063 84.7339 67.7314 82.817 67.5894 82.746C67.0214 82.1781 67.0924 81.2551 67.6604 80.7582C68.2283 80.1902 69.1513 80.2612 69.6482 80.8292C69.6482 80.8292 71.2811 82.533 74.1919 84.0949C78.0257 86.2248 82.1434 87.1477 86.4031 86.8637C96.6263 86.2958 101.525 74.8656 102.022 71.0319C102.59 67.1272 101.738 61.7315 97.6202 59.2467C94.5675 57.4009 90.5918 58.3948 88.7459 61.4476C87.326 63.7904 88.1069 66.7722 90.3788 68.1921C91.2307 68.689 92.1536 68.831 93.1476 68.6181C94.0705 68.4051 94.8514 67.7661 95.4194 66.9852C96.2003 65.7782 95.7744 64.1454 94.4965 63.3644C93.7865 62.9384 93.5735 62.0865 93.9995 61.3766C94.4255 60.6666 95.2774 60.4536 95.9874 60.8796C98.5432 62.4415 99.3951 65.7782 97.8332 68.4051C96.9103 69.896 95.4904 70.9609 93.8575 71.3159C92.1536 71.7418 90.4498 71.4578 88.9589 70.6059C85.2671 68.4051 84.1312 63.6484 86.3321 59.9567C88.9589 55.555 94.7095 54.1351 99.1821 56.7619C104.507 59.9567 105.572 66.6302 104.933 71.3869C104.578 74.0137 102.945 78.2734 100.105 81.9651C97.5493 85.2309 93.2186 89.2776 86.616 89.6325C86.1901 89.7745 85.7641 89.7745 85.1961 89.7745Z" fill="#AD843E"/>
<path fill-rule="evenodd" clip-rule="evenodd" d="M94.4221 108.09C91.2273 108.09 88.1745 106.457 86.3996 103.617C84.1988 99.9257 85.3347 95.1691 89.0264 92.9682C92.0792 91.1223 96.0549 92.1163 97.9008 95.1691C98.6817 96.447 98.8947 97.8669 98.5397 99.2868C98.1848 100.707 97.3328 101.914 96.0549 102.695C95.345 103.12 94.493 102.908 94.0671 102.198C93.6411 101.488 93.8541 100.636 94.564 100.21C95.132 99.8547 95.558 99.2868 95.771 98.5768C95.9129 97.8669 95.8419 97.2279 95.487 96.589C94.99 95.737 94.2091 95.169 93.2151 94.9561C92.2922 94.7431 91.2983 94.8851 90.4463 95.382C88.1035 96.8019 87.3935 99.7837 88.8134 102.127C90.6593 105.179 94.635 106.173 97.6878 104.327C100.244 102.766 102.941 98.7898 102.089 92.5422C101.522 88.7085 96.6939 77.2783 86.4706 76.7104C76.1764 76.0714 69.7158 82.745 69.6448 82.816C69.0769 83.3839 68.2249 83.3839 67.657 82.8869C67.089 82.319 67.089 81.467 67.586 80.8991C67.657 80.8281 69.5028 78.9112 72.7686 77.1364C75.7504 75.5035 80.578 73.5866 86.6126 73.9416C93.1441 74.2966 97.5458 78.3433 100.102 81.609C102.941 85.3008 104.574 89.6314 104.929 92.1873C105.568 96.9439 104.503 103.617 99.1787 106.812C97.6878 107.664 96.0549 108.09 94.4221 108.09Z" fill="#AD843E"/>
<path fill-rule="evenodd" clip-rule="evenodd" d="M73.7625 60.8075C72.2717 62.5114 71.7747 65.8481 71.7037 67.978C73.8335 67.623 77.0993 66.8421 78.5902 65.1382C79.4421 64.1442 79.7971 62.8663 79.5841 61.2335C79.5131 60.5945 79.3711 59.9555 79.2291 59.5296C78.0932 59.3166 75.3954 59.0326 73.7625 60.8075ZM70.2838 71.0308C69.9288 71.0308 69.5738 70.8888 69.3609 70.6758C69.0769 70.3918 68.9349 70.0368 68.8639 69.6819C68.8639 69.6109 68.7929 67.907 69.0059 65.7061C69.3609 62.7244 70.2838 60.3815 71.6327 58.8906C73.0526 57.3287 75.1114 56.4768 77.5963 56.4768C79.3711 56.4768 80.72 56.9738 80.791 56.9738C81.146 57.1157 81.501 57.3997 81.643 57.7547C81.643 57.8257 82.2819 59.1746 82.4949 60.8785C82.7789 63.2923 82.2109 65.4222 80.791 67.055C79.4421 68.5459 77.2413 69.6819 74.3305 70.3918C72.2007 70.8888 70.4968 71.0308 70.4258 71.0308C70.3548 71.0308 70.3548 71.0308 70.2838 71.0308Z" fill="#AD843E"/>
<path fill-rule="evenodd" clip-rule="evenodd" d="M80.3654 59.8143C79.9395 59.8143 79.5135 59.6013 79.2295 59.2464C78.7325 58.6074 78.8745 57.7555 79.5135 57.2585C79.5845 57.1875 81.9273 55.4126 85.4771 54.4897C88.8138 53.6378 93.8545 53.3538 99.2501 56.9035C99.889 57.3295 100.102 58.2524 99.676 58.8914C99.2501 59.5303 98.3271 59.7433 97.6882 59.3174C94.1384 56.9745 90.3047 56.2646 86.258 57.2585C83.2052 58.0395 81.2174 59.5303 81.2174 59.5303C81.0044 59.7433 80.6494 59.8143 80.3654 59.8143Z" fill="#AD843E"/>
<path fill-rule="evenodd" clip-rule="evenodd" d="M71.7754 95.5965C71.8464 97.7973 72.3433 101.063 73.8342 102.767C74.6862 103.761 75.9641 104.187 77.5969 104.187C78.3069 104.187 78.8749 104.116 79.3008 103.974C79.6558 102.767 80.2948 100.14 78.6619 98.3653C77.171 96.7324 73.9052 95.9515 71.7754 95.5965ZM77.526 107.098C75.1121 107.098 73.0533 106.246 71.7044 104.684C70.3555 103.193 69.5035 100.921 69.0776 97.8683C68.7936 95.7385 68.8646 93.9636 68.9356 93.8926C68.9356 93.5376 69.1486 93.1827 69.4325 92.8987C69.7165 92.6147 70.0715 92.5437 70.4975 92.5437C70.5685 92.5437 72.2723 92.6857 74.4022 93.1827C77.313 93.8926 79.5138 95.0285 80.8627 96.5194C82.2826 98.0813 82.8506 100.211 82.5666 102.696C82.3536 104.471 81.7856 105.749 81.7147 105.82C81.5727 106.175 81.2177 106.459 80.8627 106.601C80.7917 106.601 79.4428 107.098 77.6679 107.098C77.597 107.098 77.526 107.098 77.526 107.098Z" fill="#AD843E"/>
<path fill-rule="evenodd" clip-rule="evenodd" d="M89.7383 109.724C88.1054 109.724 86.6855 109.511 85.4076 109.157C81.8579 108.234 79.5151 106.459 79.4441 106.388C78.8051 105.891 78.7341 105.039 79.1601 104.4C79.6571 103.761 80.509 103.69 81.1479 104.116C81.2189 104.116 83.2068 105.678 86.1886 106.388C90.1643 107.382 93.998 106.672 97.6188 104.329C98.2577 103.903 99.1806 104.045 99.6066 104.755C100.033 105.394 99.8906 106.317 99.1807 106.743C95.8439 109.015 92.5781 109.724 89.7383 109.724Z" fill="#AD843E"/>
<path fill-rule="evenodd" clip-rule="evenodd" d="M97.7621 83.2424H87.2549C86.4739 83.2424 85.835 82.6034 85.835 81.8225C85.835 81.0415 86.4739 80.4026 87.2549 80.4026H97.7621C98.5431 80.4026 99.182 81.0415 99.182 81.8225C99.182 82.6034 98.5431 83.2424 97.7621 83.2424Z" fill="#AD843E"/>
<path fill-rule="evenodd" clip-rule="evenodd" d="M192.181 20.4823C191.613 20.4823 191.045 20.1274 190.832 19.4884C190.619 18.7075 190.974 17.9265 191.755 17.7135C192.039 17.6426 198.571 15.5127 203.966 17.5716C204.676 17.8555 205.102 18.6365 204.818 19.4174C204.534 20.1274 203.753 20.5533 202.972 20.2694C198.571 18.6365 192.678 20.4823 192.607 20.4823C192.465 20.4823 192.323 20.4823 192.181 20.4823Z" fill="#AD843E"/>
<path fill-rule="evenodd" clip-rule="evenodd" d="M183.168 49.0942C182.813 49.0942 182.458 48.9522 182.174 48.6682C181.606 48.1003 181.606 47.1773 182.174 46.6803L198.148 30.7065C198.716 30.1385 199.639 30.1385 200.136 30.7065C200.704 31.2744 200.704 32.1974 200.136 32.6944L184.162 48.6682C183.949 48.9522 183.523 49.0942 183.168 49.0942Z" fill="#AD843E"/>
<path fill-rule="evenodd" clip-rule="evenodd" d="M223.775 53.566C223.065 53.566 222.426 52.998 222.355 52.2881C221.716 46.8924 219.444 43.9816 217.598 42.4198C215.256 40.5029 212.913 40.0769 211.848 40.1479C211.067 40.2189 210.357 39.58 210.357 38.799C210.286 38.0181 210.925 37.3081 211.706 37.3081C212.771 37.2371 214.049 37.4501 215.327 37.8761C216.817 38.373 218.237 39.225 219.444 40.2189C221.645 42.0648 224.485 45.6145 225.195 51.9331C225.266 52.714 224.698 53.424 223.917 53.495C223.917 53.566 223.846 53.566 223.775 53.566Z" fill="#AD843E"/>
<path fill-rule="evenodd" clip-rule="evenodd" d="M211.849 40.15C211.707 40.15 211.565 40.15 211.423 40.079C210.642 39.866 210.287 39.0141 210.5 38.3041C210.5 38.2331 212.346 32.4115 210.713 27.9389C210.429 27.2289 210.784 26.377 211.565 26.093C212.275 25.809 213.127 26.164 213.411 26.9449C215.399 32.3405 213.34 38.8721 213.269 39.1561C212.985 39.795 212.417 40.15 211.849 40.15Z" fill="#AD843E"/>
<path fill-rule="evenodd" clip-rule="evenodd" d="M98.9687 133.364C98.6137 133.364 98.2588 133.222 97.9748 132.938C97.4068 132.37 97.4068 131.447 97.9748 130.95L113.949 114.977C114.517 114.409 115.44 114.409 115.937 114.977C116.504 115.544 116.504 116.467 115.937 116.964L99.9626 132.938C99.6787 133.222 99.3237 133.364 98.9687 133.364Z" fill="#AD843E"/>
<path fill-rule="evenodd" clip-rule="evenodd" d="M119.414 157.929C119.343 157.929 119.272 157.929 119.272 157.929C112.954 157.219 109.404 154.379 107.558 152.178C106.493 150.971 105.712 149.48 105.215 148.06C104.789 146.782 104.576 145.504 104.647 144.439C104.718 143.659 105.357 143.091 106.138 143.091C106.919 143.162 107.487 143.801 107.487 144.581C107.416 145.646 107.842 147.989 109.759 150.332C111.25 152.178 114.232 154.45 119.627 155.089C120.408 155.16 120.976 155.87 120.905 156.651C120.692 157.432 120.124 157.929 119.414 157.929Z" fill="#AD843E"/>
<path fill-rule="evenodd" clip-rule="evenodd" d="M99.537 146.926C97.8331 146.926 95.9163 146.713 94.2124 146.074C93.5024 145.79 93.0765 145.01 93.3604 144.229C93.6444 143.519 94.4254 143.093 95.2063 143.377C99.679 145.01 105.501 143.164 105.572 143.164C106.353 142.951 107.133 143.306 107.346 144.087C107.559 144.868 107.204 145.648 106.423 145.861C106.282 146.003 103.158 146.926 99.537 146.926Z" fill="#AD843E"/>
<path fill-rule="evenodd" clip-rule="evenodd" d="M85.9743 126.337C84.9804 126.337 83.9155 126.124 82.7796 125.769C81.2887 125.272 79.8688 124.42 78.6618 123.426C76.461 121.58 73.6212 118.03 72.9113 111.712C72.8403 110.931 73.4082 110.221 74.1892 110.15C74.9701 110.079 75.6801 110.647 75.7511 111.428C76.39 116.823 78.6618 119.734 80.5077 121.296C82.8505 123.213 85.1934 123.639 86.2583 123.568C87.0393 123.497 87.7492 124.136 87.7492 124.917C87.8202 125.698 87.1812 126.408 86.4003 126.408C86.2583 126.337 86.1163 126.337 85.9743 126.337Z" fill="#AD843E"/>
<path fill-rule="evenodd" clip-rule="evenodd" d="M86.1865 137.626C85.6186 137.626 85.0506 137.271 84.8376 136.703C82.8498 131.307 84.9086 124.776 84.9796 124.492C85.1926 123.711 86.0445 123.356 86.7545 123.569C87.5354 123.782 87.8904 124.634 87.6774 125.344C87.6774 125.415 85.8316 131.236 87.4644 135.709C87.7484 136.419 87.3935 137.271 86.6125 137.555C86.4705 137.555 86.3285 137.626 86.1865 137.626Z" fill="#AD843E"/>
<path fill-rule="evenodd" clip-rule="evenodd" d="M185.154 115.973C186.29 117.179 188.207 119.167 189.982 120.587C194.241 124.208 199.495 124.35 205.743 121.013C208.014 119.806 210.002 118.315 211.493 117.108C209.718 117.037 207.588 116.895 205.459 116.328C203.471 115.831 201.625 114.837 199.779 113.914C198.004 112.991 196.3 112.139 194.738 111.855C192.041 111.429 189.343 112.778 187.568 113.985C186.574 114.695 185.793 115.405 185.154 115.973ZM197.436 126.267C194.028 126.267 190.905 125.131 188.136 122.788C185.367 120.445 182.243 117.037 182.101 116.895C181.604 116.328 181.604 115.547 182.101 114.979C182.385 114.695 188.42 107.95 195.235 109.015C197.223 109.299 199.069 110.293 201.128 111.287C202.761 112.139 204.465 112.991 206.169 113.488C210.57 114.624 215.043 114.056 215.114 114.056C215.682 113.985 216.321 114.269 216.605 114.837C216.889 115.405 216.818 116.044 216.392 116.47C216.25 116.611 212.487 120.658 207.162 123.498C203.755 125.344 200.489 126.267 197.436 126.267Z" fill="#AD843E"/>
<path fill-rule="evenodd" clip-rule="evenodd" d="M179.122 127.543C179.335 129.034 180.258 130.738 181.181 132.584C182.104 134.359 183.027 136.205 183.594 138.264C184.162 140.394 184.375 142.523 184.375 144.298C185.582 142.807 187.073 140.82 188.28 138.548C191.617 132.3 191.475 127.047 187.854 122.787C186.363 121.012 184.375 119.095 183.239 117.959C182.672 118.527 181.962 119.379 181.252 120.444C180.045 122.148 178.696 124.846 179.122 127.543ZM182.743 149.481C182.53 149.481 182.317 149.41 182.104 149.339C181.536 149.055 181.252 148.487 181.323 147.848C181.323 147.777 181.891 143.304 180.755 138.903C180.329 137.199 179.406 135.495 178.554 133.862C177.56 131.874 176.566 129.957 176.282 127.969C175.217 121.154 181.891 115.119 182.246 114.835C182.814 114.338 183.594 114.338 184.162 114.835C184.304 114.977 187.712 118.101 190.055 120.87C194.457 126.053 194.67 132.584 190.765 139.897C187.925 145.15 183.878 148.984 183.736 149.126C183.452 149.339 183.097 149.481 182.743 149.481Z" fill="#AD843E"/>
<path fill-rule="evenodd" clip-rule="evenodd" d="M205.886 140.109C205.744 140.109 205.602 140.109 205.46 140.038C204.679 139.825 204.253 139.044 204.466 138.263C204.466 138.192 205.602 134.429 205.247 131.163C204.892 127.827 203.401 124.561 203.401 124.561C203.046 123.851 203.401 122.999 204.111 122.644C204.821 122.289 205.673 122.644 206.028 123.354C206.099 123.496 207.732 127.046 208.087 130.879C208.513 134.713 207.306 138.902 207.235 139.044C207.093 139.683 206.525 140.109 205.886 140.109Z" fill="#AD843E"/>
<path fill-rule="evenodd" clip-rule="evenodd" d="M199.71 140.963C199.142 140.963 198.645 140.963 198.077 140.892C194.243 140.466 190.693 138.904 190.551 138.833C189.841 138.478 189.486 137.626 189.841 136.916C190.196 136.206 191.048 135.851 191.758 136.206C191.758 136.206 195.024 137.697 198.361 138.052C201.627 138.407 205.389 137.271 205.46 137.271C206.241 137.058 207.022 137.484 207.235 138.265C207.448 139.046 207.022 139.827 206.241 140.04C206.17 140.04 203.046 140.963 199.71 140.963Z" fill="#AD843E"/>
<path fill-rule="evenodd" clip-rule="evenodd" d="M113.805 19.4177C112.598 20.9086 111.107 22.8965 109.901 25.1683C106.564 31.4158 106.706 36.6695 110.327 40.9292C111.817 42.704 113.805 44.6209 114.941 45.7568C115.509 45.1889 116.219 44.3369 116.929 43.272C118.136 41.4971 119.485 38.7993 119.059 36.1015C118.846 34.6106 117.923 32.9067 117 31.0609C116.077 29.286 115.154 27.4401 114.586 25.3813C114.018 23.2514 113.805 21.1216 113.805 19.4177ZM114.941 49.0936C114.586 49.0936 114.231 48.9516 113.947 48.7386C113.805 48.5966 110.398 45.4729 108.055 42.704C103.653 37.5214 103.44 30.9899 107.345 23.6774C110.185 18.4238 114.231 14.5901 114.373 14.4481C114.799 14.0221 115.438 13.9511 116.006 14.2351C116.574 14.5191 116.858 15.087 116.787 15.726C116.787 15.797 116.219 20.2696 117.355 24.6713C117.781 26.3752 118.704 28.0791 119.556 29.783C120.55 31.7708 121.544 33.6877 121.828 35.6755C122.893 42.491 116.219 48.5256 115.864 48.8096C115.651 49.0226 115.296 49.0936 114.941 49.0936Z" fill="#AD843E"/>
<path fill-rule="evenodd" clip-rule="evenodd" d="M103.368 51.722C106.065 52.148 108.763 50.7991 110.538 49.5922C111.532 48.8822 112.384 48.1723 112.952 47.6753C111.816 46.4684 109.899 44.4806 108.124 42.9897C103.865 39.3689 98.5399 39.2269 92.2924 42.6347C90.0205 43.8416 88.1037 45.3325 86.6128 46.5394C88.3877 46.6104 90.5175 46.7524 92.6474 47.3204C94.6352 47.8173 96.4811 48.8112 98.3269 49.7342C100.102 50.6571 101.806 51.509 103.368 51.722ZM104.362 54.7038C103.865 54.7038 103.368 54.6328 102.871 54.5618C100.883 54.2778 99.0369 53.2839 96.978 52.29C95.3451 51.4381 93.6413 50.5861 91.8664 50.0892C87.4647 48.9532 82.992 49.5212 82.921 49.5212C82.3531 49.5922 81.7141 49.3082 81.4302 48.7403C81.1462 48.1723 81.2172 47.5333 81.6431 47.1074C81.7851 46.9654 85.5479 42.9187 90.8725 40.0789C98.185 36.1741 104.716 36.3871 109.899 40.7888C112.668 43.1316 115.792 46.5394 115.934 46.6814C116.431 47.2493 116.431 48.0303 115.934 48.5983C115.792 48.8822 110.609 54.7038 104.362 54.7038Z" fill="#AD843E"/>
<path fill-rule="evenodd" clip-rule="evenodd" d="M106.92 27.511C106.707 27.511 106.494 27.44 106.352 27.369C106.352 27.369 103.086 25.8781 99.7493 25.5231C96.4836 25.1682 92.6498 26.3041 92.6498 26.3041C91.8689 26.5171 91.0879 26.0911 90.875 25.3102C90.662 24.5292 91.0879 23.7483 91.8689 23.5353C92.0109 23.4643 96.2706 22.2574 100.033 22.6833C103.867 23.1093 107.417 24.6712 107.559 24.7422C108.269 25.0972 108.624 25.9491 108.269 26.6591C107.985 27.227 107.488 27.511 106.92 27.511Z" fill="#AD843E"/>
<path fill-rule="evenodd" clip-rule="evenodd" d="M93.3592 41.0716C92.7913 41.0716 92.2943 40.7876 92.0813 40.2196C92.0103 40.0777 90.3774 36.5279 90.0225 32.6942C89.5965 28.8605 90.8034 24.6718 90.8744 24.5298C91.0874 23.7488 91.8683 23.3229 92.6493 23.5358C93.4302 23.7488 93.8562 24.5298 93.6432 25.3107C93.6432 25.3817 92.5073 29.1444 92.8622 32.4102C93.2172 35.747 94.7081 39.0127 94.7081 39.0127C95.0631 39.7227 94.7081 40.5746 93.9982 40.9296C93.7852 41.0716 93.5722 41.0716 93.3592 41.0716Z" fill="#AD843E"/>
<path fill-rule="evenodd" clip-rule="evenodd" d="M199.21 133.364C198.855 133.364 198.5 133.222 198.216 132.938L182.242 116.964C181.674 116.396 181.674 115.473 182.242 114.977C182.81 114.409 183.733 114.409 184.23 114.977L200.204 130.95C200.772 131.518 200.772 132.441 200.204 132.938C199.92 133.222 199.565 133.364 199.21 133.364Z" fill="#AD843E"/>
<path fill-rule="evenodd" clip-rule="evenodd" d="M212.205 126.337C212.063 126.337 211.921 126.337 211.779 126.337C210.998 126.266 210.43 125.627 210.43 124.846C210.501 124.065 211.14 123.497 211.921 123.497C212.986 123.568 215.328 123.142 217.671 121.225C219.517 119.734 221.789 116.753 222.428 111.357C222.499 110.576 223.209 110.008 223.99 110.079C224.771 110.15 225.339 110.86 225.268 111.641C224.558 117.959 221.718 121.509 219.517 123.355C218.31 124.42 216.819 125.201 215.399 125.698C214.263 126.124 213.127 126.337 212.205 126.337Z" fill="#AD843E"/>
<path fill-rule="evenodd" clip-rule="evenodd" d="M211.989 137.626C211.847 137.626 211.634 137.626 211.492 137.555C210.782 137.271 210.356 136.49 210.64 135.709C212.273 131.307 210.427 125.415 210.427 125.344C210.214 124.563 210.569 123.782 211.35 123.569C212.131 123.356 212.912 123.711 213.125 124.492C213.196 124.776 215.326 131.307 213.267 136.703C213.125 137.271 212.557 137.626 211.989 137.626Z" fill="#AD843E"/>
<path fill-rule="evenodd" clip-rule="evenodd" d="M178.765 157.929C178.055 157.929 177.416 157.361 177.345 156.651C177.274 155.87 177.842 155.16 178.623 155.089C184.018 154.45 186.929 152.178 188.491 150.333C190.408 147.99 190.834 145.647 190.763 144.582C190.692 143.801 191.331 143.091 192.112 143.091C192.893 143.02 193.603 143.659 193.603 144.44C193.674 145.505 193.461 146.783 193.035 148.061C192.538 149.552 191.686 150.972 190.692 152.178C188.846 154.379 185.296 157.219 178.978 157.929C178.907 157.929 178.836 157.929 178.765 157.929Z" fill="#AD843E"/>
<path fill-rule="evenodd" clip-rule="evenodd" d="M198.573 146.926C194.953 146.926 191.9 145.932 191.687 145.861C190.906 145.648 190.551 144.797 190.764 144.087C190.977 143.306 191.829 142.951 192.539 143.164C192.61 143.164 198.431 145.01 202.904 143.377C203.614 143.093 204.466 143.448 204.75 144.229C205.034 144.939 204.679 145.79 203.898 146.074C202.194 146.713 200.348 146.926 198.573 146.926Z" fill="#AD843E"/>
<path fill-rule="evenodd" clip-rule="evenodd" d="M114.943 49.0942C114.588 49.0942 114.233 48.9522 113.949 48.6682L97.9748 32.6944C97.4068 32.1264 97.4068 31.2035 97.9748 30.7065C98.5428 30.1385 99.4657 30.1385 99.9626 30.7065L115.937 46.6803C116.504 47.2483 116.504 48.1712 115.937 48.6682C115.724 48.9522 115.298 49.0942 114.943 49.0942Z" fill="#AD843E"/>
<path fill-rule="evenodd" clip-rule="evenodd" d="M74.3312 53.5682C74.2602 53.5682 74.1892 53.5682 74.1892 53.5682C73.4082 53.4972 72.8403 52.7873 72.9113 52.0063C73.6212 45.6878 76.39 42.138 78.6618 40.2921C79.8688 39.2272 81.3597 38.4463 82.7796 37.9493C84.0575 37.5234 85.3354 37.3104 86.4003 37.3814C87.1812 37.4524 87.7492 38.0913 87.7492 38.8722C87.6782 39.6532 87.0393 40.2212 86.2583 40.2212C85.1934 40.1502 82.8505 40.5761 80.5077 42.493C78.6618 43.9839 76.39 46.9657 75.7511 52.3613C75.6801 53.0002 75.0411 53.5682 74.3312 53.5682Z" fill="#AD843E"/>
<path fill-rule="evenodd" clip-rule="evenodd" d="M86.3308 40.1491C85.7628 40.1491 85.1948 39.7942 84.9819 39.1552C84.9109 38.8712 82.781 32.3397 84.8399 26.9441C85.1239 26.2341 85.9048 25.8081 86.6857 26.0921C87.3957 26.3761 87.8216 27.1571 87.5377 27.938C85.9048 32.4107 87.7507 38.2323 87.7507 38.3033C87.9636 39.0842 87.6087 39.8651 86.8277 40.0781C86.6147 40.1491 86.4727 40.1491 86.3308 40.1491Z" fill="#AD843E"/>
<path fill-rule="evenodd" clip-rule="evenodd" d="M105.994 20.4833C105.284 20.4833 104.645 19.9154 104.574 19.1344C104.503 18.0695 104.716 16.7916 105.142 15.5137C105.639 14.0228 106.491 12.6029 107.485 11.396C109.331 9.19515 112.88 6.35534 119.199 5.6454C119.98 5.5744 120.69 6.14236 120.761 6.92331C120.832 7.70425 120.264 8.4142 119.483 8.48519C114.087 9.12415 111.177 11.396 109.615 13.2418C107.698 15.5847 107.272 17.9275 107.343 18.9924C107.414 19.7734 106.775 20.4833 105.994 20.4833Z" fill="#AD843E"/>
<path fill-rule="evenodd" clip-rule="evenodd" d="M105.996 20.4827C105.854 20.4827 105.712 20.4828 105.57 20.4118C105.499 20.4118 99.6774 18.5659 95.2047 20.1988C94.4948 20.4828 93.6428 20.1278 93.3589 19.3468C93.0749 18.6369 93.4298 17.7849 94.2108 17.501C99.6064 15.5131 106.138 17.572 106.422 17.643C107.203 17.8559 107.558 18.7079 107.345 19.4178C107.132 20.1278 106.564 20.4827 105.996 20.4827Z" fill="#AD843E"/>
<path fill-rule="evenodd" clip-rule="evenodd" d="M121.26 53.9939C121.828 56.1948 123.035 59.6735 125.164 61.8034C126.442 63.0813 128.004 63.7912 129.779 64.0042C130.347 64.0752 130.844 64.0752 131.27 64.0752C131.27 63.6492 131.27 63.1523 131.199 62.5843C130.986 60.7384 130.205 59.1766 128.998 57.9696C127.649 56.6207 125.519 55.4138 122.822 54.5619C122.254 54.2779 121.686 54.0649 121.26 53.9939ZM130.844 66.915C128.856 66.915 125.732 66.418 123.106 63.7912C119.201 59.8865 117.994 52.645 117.923 52.29C117.852 51.8641 117.994 51.3671 118.349 51.0831C118.704 50.7282 119.13 50.5862 119.556 50.6572C119.84 50.7281 127.081 51.9351 131.057 55.8398C135.246 60.0285 134.039 65.4241 133.968 65.6371C133.826 66.205 133.4 66.56 132.903 66.702C132.832 66.702 132.051 66.915 130.844 66.915Z" fill="#AD843E"/>
<path fill-rule="evenodd" clip-rule="evenodd" d="M135.317 69.4706C134.962 69.4706 134.607 69.3287 134.323 69.0447L131.554 66.2759C130.986 65.7079 130.986 64.785 131.554 64.288C132.122 63.7201 133.045 63.7201 133.542 64.288L136.311 67.0568C136.879 67.6248 136.879 68.5477 136.311 69.0447C136.027 69.3287 135.672 69.4706 135.317 69.4706Z" fill="#AD843E"/>
<path fill-rule="evenodd" clip-rule="evenodd" d="M166.836 99.5707C166.836 99.9967 166.836 100.494 166.907 101.062C167.12 102.908 167.901 104.469 169.107 105.676C170.456 107.025 172.586 108.232 175.284 109.084C175.852 109.297 176.42 109.439 176.917 109.581C176.349 107.38 175.142 103.901 173.012 101.772C170.882 99.7127 168.256 99.4997 166.836 99.5707ZM178.834 112.989C178.763 112.989 178.692 112.989 178.621 112.989C178.337 112.918 171.095 111.711 167.12 107.806C162.931 103.617 164.138 98.2218 164.209 98.0089C164.351 97.4409 164.777 97.0859 165.274 96.9439C165.487 96.8729 170.882 95.737 175.071 99.8547C178.976 103.759 180.183 111.001 180.254 111.356C180.325 111.782 180.183 112.279 179.828 112.563C179.544 112.847 179.189 112.989 178.834 112.989Z" fill="#AD843E"/>
<path fill-rule="evenodd" clip-rule="evenodd" d="M165.561 99.7148C165.206 99.7148 164.851 99.5728 164.567 99.2888L161.798 96.52C161.23 95.9521 161.23 95.0291 161.798 94.5322C162.366 93.9642 163.289 93.9642 163.786 94.5322L166.555 97.301C167.123 97.8689 167.123 98.7919 166.555 99.2888C166.271 99.5728 165.916 99.7148 165.561 99.7148Z" fill="#AD843E"/>
<path fill-rule="evenodd" clip-rule="evenodd" d="M166.837 64.0042C167.263 64.0042 167.76 64.0042 168.328 63.9332C170.173 63.7202 171.735 62.9393 172.942 61.7324C174.291 60.3835 175.498 58.2536 176.35 55.5558C176.563 54.9878 176.705 54.4199 176.847 53.9229C174.646 54.4909 171.167 55.6978 169.037 57.8276C167.76 59.1056 167.05 60.6674 166.837 62.4423C166.837 63.0813 166.837 63.6492 166.837 64.0042ZM167.334 66.915C166.127 66.915 165.346 66.773 165.275 66.702C164.707 66.56 164.352 66.134 164.21 65.6371C164.139 65.4241 163.003 60.0285 167.121 55.8398C171.025 51.9351 178.267 50.7281 178.622 50.6572C179.048 50.5862 179.545 50.7282 179.829 51.0831C180.184 51.4381 180.326 51.8641 180.255 52.29C180.184 52.574 178.977 59.8155 175.072 63.7912C172.374 66.418 169.321 66.915 167.334 66.915Z" fill="#AD843E"/>
<path fill-rule="evenodd" clip-rule="evenodd" d="M162.792 69.4706C162.437 69.4706 162.082 69.3287 161.798 69.0447C161.23 68.4767 161.23 67.5538 161.798 67.0568L164.567 64.288C165.135 63.7201 166.058 63.7201 166.555 64.288C167.123 64.856 167.123 65.7789 166.555 66.2759L163.786 69.0447C163.573 69.3287 163.218 69.4706 162.792 69.4706Z" fill="#AD843E"/>
<path fill-rule="evenodd" clip-rule="evenodd" d="M130.844 99.5722C130.489 99.5722 130.134 99.5722 129.779 99.6432C127.933 99.8562 126.371 100.637 125.164 101.844C123.035 103.974 121.828 107.382 121.26 109.653C123.461 109.085 126.939 107.879 129.069 105.749C130.347 104.471 131.057 102.909 131.27 101.134C131.341 100.566 131.341 99.9981 131.341 99.6432C131.128 99.5722 130.986 99.5722 130.844 99.5722ZM119.343 112.99C118.988 112.99 118.633 112.848 118.349 112.564C117.994 112.209 117.852 111.783 117.923 111.357C117.994 111.073 119.201 103.832 123.106 99.8562C127.294 95.6675 132.69 96.8744 132.903 96.9454C133.471 97.0874 133.826 97.5133 133.968 98.0103C134.039 98.2233 135.175 103.619 131.057 107.808C127.152 111.712 119.911 112.919 119.556 112.99C119.485 112.99 119.414 112.99 119.343 112.99Z" fill="#AD843E"/>
<path fill-rule="evenodd" clip-rule="evenodd" d="M132.548 99.7148C132.193 99.7148 131.838 99.5728 131.554 99.2888C130.986 98.7209 130.986 97.7979 131.554 97.301L134.323 94.5322C134.891 93.9642 135.814 93.9642 136.311 94.5322C136.879 95.1001 136.879 96.0231 136.311 96.52L133.542 99.2888C133.329 99.5728 132.974 99.7148 132.548 99.7148Z" fill="#AD843E"/>
<path fill-rule="evenodd" clip-rule="evenodd" d="M114.872 82.6047C110.399 82.6047 106.849 78.984 106.849 74.5823C106.849 70.8906 109.902 67.8378 113.594 67.8378C116.718 67.8378 119.273 70.3936 119.273 73.5174C119.273 74.2983 118.634 74.9373 117.853 74.9373C117.073 74.9373 116.434 74.2983 116.434 73.5174C116.434 71.9555 115.156 70.6776 113.594 70.6776C111.464 70.6776 109.689 72.3815 109.689 74.5823C109.689 77.4221 112.032 79.7649 114.872 79.7649C116.789 79.7649 118.492 79.126 119.77 77.9191C121.048 76.6412 121.758 74.9373 121.758 72.9494C121.758 70.8196 121.048 69.1867 119.699 67.8378C115.866 64.2881 108.198 64.714 108.127 64.714C107.346 64.785 106.636 64.1461 106.636 63.3651C106.565 62.5842 107.204 61.8742 107.985 61.8742C108.34 61.8742 117.002 61.3063 121.758 65.708C123.746 67.5538 124.74 69.9677 124.74 72.8785C124.74 75.6473 123.746 78.1321 121.9 79.9069C119.912 81.6818 117.498 82.6047 114.872 82.6047Z" fill="#AD843E"/>
<path fill-rule="evenodd" clip-rule="evenodd" d="M118.278 66.7016C117.994 66.7016 117.781 66.6306 117.497 66.4886C115.225 65.0687 113.735 62.5839 113.167 59.3182C112.741 56.9753 112.954 54.9875 112.954 54.9165C113.025 54.1355 113.735 53.5676 114.516 53.6386C115.296 53.7096 115.864 54.4195 115.793 55.2004C115.793 55.2714 115.225 61.661 119.059 64.0748C119.698 64.5008 119.911 65.3527 119.485 66.0627C119.201 66.4176 118.775 66.7016 118.278 66.7016Z" fill="#AD843E"/>
<path fill-rule="evenodd" clip-rule="evenodd" d="M108.977 100.567C108.267 100.567 107.841 100.567 107.77 100.567C106.989 100.496 106.421 99.8568 106.421 99.0758C106.492 98.2949 107.131 97.7269 107.912 97.7269C107.983 97.7269 115.721 98.2239 119.555 94.6031C120.975 93.3252 121.614 91.6213 121.614 89.4915C121.614 87.5036 120.904 85.7288 119.626 84.5219C118.348 83.3149 116.644 82.676 114.727 82.676C111.888 82.676 109.545 85.0188 109.545 87.8586C109.545 89.9884 111.249 91.7633 113.449 91.7633C115.011 91.7633 116.289 90.4854 116.289 88.9235C116.289 88.1426 116.928 87.5036 117.709 87.5036C118.49 87.5036 119.129 88.1426 119.129 88.9235C119.129 92.0473 116.573 94.6031 113.449 94.6031C109.758 94.6031 106.705 91.5503 106.705 87.8586C106.705 83.3859 110.326 79.8362 114.727 79.8362C117.354 79.8362 119.768 80.7591 121.543 82.534C123.389 84.3089 124.383 86.7937 124.383 89.5625C124.383 92.4733 123.389 94.8871 121.401 96.733C117.851 100.212 111.604 100.567 108.977 100.567Z" fill="#AD843E"/>
<path fill-rule="evenodd" clip-rule="evenodd" d="M114.374 108.801C113.664 108.801 113.025 108.233 112.954 107.524C112.954 107.453 112.741 105.465 113.167 103.122C113.735 99.8561 115.296 97.3713 117.497 95.9514C118.136 95.5254 119.059 95.7384 119.485 96.3773C119.911 97.0163 119.698 97.9392 119.059 98.3652C117.497 99.3591 116.432 101.134 116.006 103.619C115.651 105.607 115.793 107.24 115.793 107.24C115.864 108.02 115.296 108.73 114.516 108.801C114.445 108.801 114.445 108.801 114.374 108.801Z" fill="#AD843E"/>
<path fill-rule="evenodd" clip-rule="evenodd" d="M157.397 56.69C154.628 56.69 152.144 55.6961 150.369 53.8502C148.665 52.0753 147.671 49.6615 147.671 47.0347C147.671 42.562 151.292 39.0123 155.693 39.0123C159.385 39.0123 162.438 42.0651 162.438 45.7568C162.438 48.8806 159.882 51.4364 156.758 51.4364C155.977 51.4364 155.338 50.7974 155.338 50.0165C155.338 49.2355 155.977 48.5966 156.758 48.5966C158.32 48.5966 159.598 47.3187 159.598 45.7568C159.598 43.6269 157.894 41.8521 155.693 41.8521C152.854 41.8521 150.511 44.1949 150.511 47.0347C150.511 48.9516 151.15 50.6554 152.357 51.9334C153.634 53.2113 155.338 53.9212 157.326 53.9212C159.456 53.9212 161.089 53.2113 162.438 51.8624C165.988 48.0286 165.562 40.3612 165.562 40.2192C165.491 39.4383 166.13 38.7283 166.911 38.7283C167.691 38.6573 168.401 39.2963 168.401 40.0772C168.401 40.4322 168.969 49.0935 164.568 53.8502C162.722 55.6961 160.308 56.69 157.397 56.69Z" fill="#AD843E"/>
<path fill-rule="evenodd" clip-rule="evenodd" d="M165.061 51.7926C164.777 51.7926 164.564 51.7217 164.28 51.5797C163.641 51.1537 163.428 50.3017 163.854 49.5918C165.274 47.32 167.759 45.8291 171.025 45.2611C173.368 44.8351 175.356 45.0481 175.427 45.0481C176.208 45.1191 176.776 45.8291 176.705 46.61C176.634 47.391 175.924 47.9589 175.143 47.8879C175.072 47.8879 168.682 47.32 166.268 51.1537C165.984 51.5797 165.558 51.7926 165.061 51.7926Z" fill="#AD843E"/>
<path fill-rule="evenodd" clip-rule="evenodd" d="M140.856 56.6899C137.945 56.6899 135.531 55.696 133.686 53.7081C129.284 48.9515 129.781 40.2901 129.852 39.9351C129.923 39.1541 130.562 38.5862 131.343 38.5862C132.124 38.6572 132.692 39.2961 132.692 40.0771C132.692 40.2191 132.266 47.8865 135.815 51.7202C137.093 53.1401 138.797 53.7791 140.927 53.7791C142.915 53.7791 144.69 53.0691 145.897 51.7912C147.104 50.5133 147.743 48.8095 147.743 46.8926C147.743 44.0528 145.4 41.71 142.56 41.71C140.43 41.71 138.655 43.4138 138.655 45.6147C138.655 47.1766 139.933 48.4545 141.495 48.4545C142.276 48.4545 142.915 49.0934 142.915 49.8744C142.915 50.6553 142.276 51.2943 141.495 51.2943C138.371 51.2943 135.815 48.7384 135.815 45.6147C135.815 41.9229 138.868 38.8702 142.56 38.8702C147.033 38.8702 150.582 42.4909 150.582 46.8926C150.582 49.5194 149.659 51.9332 147.885 53.7081C146.11 55.625 143.554 56.6899 140.856 56.6899Z" fill="#AD843E"/>
<path fill-rule="evenodd" clip-rule="evenodd" d="M133.114 51.7926C132.617 51.7926 132.191 51.5797 131.907 51.1537C130.913 49.5918 129.138 48.5269 126.653 48.1009C124.666 47.7459 123.033 47.8879 123.033 47.8879C122.252 47.9589 121.542 47.391 121.471 46.61C121.4 45.8291 121.968 45.1191 122.749 45.0481C122.82 45.0481 124.808 44.8351 127.15 45.2611C130.416 45.8291 132.901 47.391 134.321 49.5918C134.747 50.2307 134.534 51.1537 133.895 51.5797C133.682 51.7217 133.398 51.7926 133.114 51.7926Z" fill="#AD843E"/>
<path fill-rule="evenodd" clip-rule="evenodd" d="M189.2 100.564C186.573 100.564 180.397 100.138 176.634 96.6597C174.646 94.8139 173.652 92.4 173.652 89.4893C173.652 86.7204 174.646 84.2356 176.492 82.4608C178.267 80.7569 180.681 79.7629 183.308 79.7629C187.78 79.7629 191.33 83.3837 191.33 87.7854C191.33 91.4771 188.277 94.5299 184.586 94.5299C181.462 94.5299 178.906 91.9741 178.906 88.8503C178.906 88.0694 179.545 87.4304 180.326 87.4304C181.107 87.4304 181.746 88.0694 181.746 88.8503C181.746 90.4122 183.024 91.6901 184.586 91.6901C186.715 91.6901 188.49 89.9862 188.49 87.7854C188.49 84.9456 186.147 82.6027 183.308 82.6027C181.391 82.6027 179.687 83.2417 178.409 84.4486C177.131 85.7265 176.421 87.4304 176.421 89.4183C176.421 91.5481 177.131 93.181 178.48 94.5299C182.314 98.0796 189.981 97.6537 190.123 97.6537C190.904 97.5827 191.614 98.2216 191.614 99.0026C191.685 99.7835 191.046 100.493 190.265 100.493C190.265 100.564 189.839 100.564 189.2 100.564Z" fill="#AD843E"/>
<path fill-rule="evenodd" clip-rule="evenodd" d="M183.878 108.801C183.807 108.801 183.807 108.801 183.736 108.801C182.955 108.73 182.387 108.02 182.458 107.24C182.458 107.169 183.026 100.779 179.193 98.3652C178.554 97.9392 178.341 97.0873 178.767 96.3773C179.193 95.7384 180.044 95.5254 180.754 95.9514C183.026 97.3713 184.517 99.8561 185.085 103.122C185.511 105.465 185.298 107.453 185.298 107.524C185.227 108.233 184.588 108.801 183.878 108.801Z" fill="#AD843E"/>
<path fill-rule="evenodd" clip-rule="evenodd" d="M183.381 82.6036C180.754 82.6036 178.34 81.6806 176.565 79.9058C174.72 78.1309 173.726 75.6461 173.726 72.8773C173.726 69.9665 174.72 67.5526 176.707 65.7068C181.464 61.3051 190.125 61.8021 190.48 61.8731C191.261 61.9441 191.829 62.583 191.829 63.3639C191.758 64.1449 191.119 64.7129 190.338 64.7129C190.267 64.7129 182.529 64.2159 178.695 67.8366C177.275 69.1145 176.636 70.8184 176.636 72.9482C176.636 74.9361 177.346 76.711 178.624 77.9179C179.902 79.1248 181.606 79.7638 183.523 79.7638C186.363 79.7638 188.706 77.4209 188.706 74.5811C188.706 72.4513 187.002 70.6764 184.801 70.6764C183.239 70.6764 181.961 71.9543 181.961 73.5162C181.961 74.2972 181.322 74.9361 180.541 74.9361C179.76 74.9361 179.121 74.2972 179.121 73.5162C179.121 70.3924 181.677 67.8366 184.801 67.8366C188.493 67.8366 191.545 70.8894 191.545 74.5811C191.403 79.0538 187.783 82.6036 183.381 82.6036Z" fill="#AD843E"/>
<path fill-rule="evenodd" clip-rule="evenodd" d="M179.9 66.7016C179.403 66.7016 178.977 66.4886 178.693 66.0627C178.267 65.4237 178.48 64.5008 179.119 64.0748C180.681 63.0809 181.746 61.306 182.172 58.8212C182.527 56.8333 182.385 55.2004 182.385 55.2004C182.314 54.4195 182.882 53.7096 183.663 53.6386C184.444 53.5676 185.154 54.1355 185.225 54.9165C185.225 54.9875 185.438 56.9753 185.012 59.3182C184.444 62.5839 182.882 65.0687 180.681 66.4886C180.468 66.6306 180.184 66.7016 179.9 66.7016Z" fill="#AD843E"/>
<path fill-rule="evenodd" clip-rule="evenodd" d="M149.088 83.2435C148.733 83.2435 148.378 83.1016 148.094 82.8176C145.609 80.4038 142.84 77.4929 140.994 74.3692C138.865 70.8194 138.368 67.6247 139.291 64.5009C139.716 63.223 140.639 62.158 141.846 61.5901C143.053 61.0221 144.544 60.9511 145.68 61.3771C147.242 62.0161 148.378 63.8619 148.236 65.7788C148.165 67.6247 146.958 69.1156 145.041 69.6125C144.26 69.8255 143.479 69.3995 143.266 68.6186C143.053 67.8377 143.479 67.0567 144.26 66.8437C144.97 66.6307 145.325 66.2048 145.396 65.5658C145.467 64.7849 145.041 64.1459 144.615 63.9329C144.331 63.7909 143.692 63.7909 143.124 64.0749C142.769 64.2169 142.272 64.5719 142.059 65.2818C140.497 70.3225 145.041 75.6471 150.153 80.6877C150.721 81.2557 150.721 82.1076 150.153 82.6756C149.798 83.1016 149.443 83.2435 149.088 83.2435Z" fill="#AD843E"/>
<path fill-rule="evenodd" clip-rule="evenodd" d="M149.091 83.2431C148.736 83.2431 148.381 83.1012 148.097 82.8172C147.529 82.2492 147.529 81.3263 148.097 80.8293C153.209 75.7887 157.752 70.4641 156.19 65.4234C155.977 64.7845 155.48 64.4295 155.125 64.2165C154.557 63.9325 153.918 63.9325 153.634 64.0745C153.208 64.2165 152.783 64.9265 152.854 65.7074C152.925 66.3464 153.279 66.7723 153.989 66.9853C154.77 67.1983 155.196 67.9792 154.983 68.7602C154.77 69.5411 153.989 69.9671 153.208 69.7541C151.363 69.1861 150.156 67.7663 150.014 65.9204C149.943 64.0035 151.008 62.1577 152.57 61.5187C153.705 61.0927 155.125 61.1637 156.403 61.7317C157.681 62.2996 158.604 63.3646 158.959 64.6425C159.953 67.6953 159.385 70.961 157.255 74.5108C155.409 77.6345 152.641 80.5453 150.156 82.9592C149.801 83.1012 149.446 83.2431 149.091 83.2431Z" fill="#AD843E"/>
<path fill-rule="evenodd" clip-rule="evenodd" d="M144.049 102.482C143.339 102.482 142.559 102.34 141.849 101.985C140.571 101.417 139.648 100.352 139.293 99.0745C138.299 96.0217 138.867 92.7559 140.997 89.2062C142.842 86.0824 145.611 83.1716 148.096 80.7578C148.664 80.1898 149.587 80.1898 150.084 80.7578C150.652 81.3257 150.652 82.2487 150.084 82.7456C144.972 87.7863 140.429 93.1109 141.991 98.1515C142.204 98.7905 142.7 99.1454 143.055 99.3584C143.623 99.6424 144.262 99.6424 144.546 99.5004C144.972 99.3584 145.398 98.6485 145.327 97.8675C145.256 97.2286 144.901 96.8026 144.191 96.5896C143.41 96.3766 142.984 95.5957 143.197 94.8148C143.41 94.0338 144.191 93.6079 144.972 93.8208C146.818 94.3888 148.025 95.8087 148.167 97.6546C148.238 99.5714 147.173 101.417 145.611 102.056C145.185 102.411 144.617 102.482 144.049 102.482Z" fill="#AD843E"/>
<path fill-rule="evenodd" clip-rule="evenodd" d="M154.129 102.482C153.561 102.482 152.993 102.411 152.496 102.198C150.934 101.559 149.798 99.713 149.94 97.7961C150.011 95.9503 151.218 94.4594 153.135 93.9624C153.916 93.7494 154.697 94.1754 154.91 94.9563C155.123 95.7373 154.697 96.5182 153.916 96.7312C153.206 96.9442 152.851 97.3702 152.78 98.0091C152.709 98.7901 153.135 99.429 153.561 99.642C153.916 99.784 154.484 99.784 155.052 99.5C155.407 99.358 155.904 99.0031 156.117 98.2931C157.679 93.2525 153.135 87.9278 148.024 82.8872C147.456 82.3192 147.456 81.3963 148.024 80.8994C148.592 80.3314 149.444 80.3314 150.011 80.8994C152.496 83.3132 155.265 86.224 157.111 89.3477C159.241 92.8975 159.738 96.0923 158.815 99.216C158.389 100.494 157.466 101.559 156.259 102.127C155.62 102.34 154.839 102.482 154.129 102.482Z" fill="#AD843E"/>
<path fill-rule="evenodd" clip-rule="evenodd" d="M149.091 83.2418C148.736 83.2418 148.381 83.0999 148.097 82.8159C147.529 82.2479 147.529 81.325 148.097 80.828C150.511 78.3432 153.421 75.5744 156.545 73.7285C160.095 71.5987 163.29 71.1017 166.414 72.0247C167.691 72.4506 168.756 73.3736 169.324 74.5805C169.892 75.7874 169.963 77.2783 169.537 78.4142C168.898 79.9761 167.053 81.112 165.136 80.97C163.29 80.899 161.799 79.6921 161.302 77.7753C161.089 76.9943 161.515 76.2134 162.296 76.0004C163.077 75.7874 163.858 76.2134 164.071 76.9943C164.284 77.7043 164.71 78.0592 165.349 78.1302C166.13 78.2012 166.769 77.7752 166.981 77.3493C167.123 77.0653 167.123 76.4263 166.84 75.8584C166.698 75.5034 166.343 75.0064 165.633 74.7935C160.592 73.2316 155.267 77.7752 150.227 82.8869C149.801 83.0999 149.446 83.2418 149.091 83.2418Z" fill="#AD843E"/>
<path fill-rule="evenodd" clip-rule="evenodd" d="M163.359 92.1165C161.158 92.1165 158.886 91.4066 156.472 89.9867C153.348 88.1408 150.437 85.372 148.024 82.8872C147.456 82.3192 147.456 81.3963 148.024 80.8994C148.592 80.3314 149.515 80.3314 150.011 80.8994C155.052 86.011 160.377 90.5547 165.417 88.9928C166.056 88.7798 166.411 88.2828 166.624 87.9278C166.908 87.3599 166.908 86.7209 166.766 86.437C166.624 86.011 165.914 85.585 165.133 85.656C164.494 85.727 164.068 86.082 163.855 86.7919C163.642 87.5729 162.862 87.9989 162.081 87.7859C161.3 87.5729 160.874 86.7919 161.087 86.011C161.655 84.1651 163.075 82.9582 164.92 82.8162C166.837 82.7452 168.683 83.8101 169.322 85.372C169.819 86.5079 169.677 87.9279 169.109 89.2058C168.541 90.4837 167.476 91.4066 166.198 91.7616C165.346 91.9036 164.352 92.1165 163.359 92.1165Z" fill="#AD843E"/>
<path fill-rule="evenodd" clip-rule="evenodd" d="M149.089 83.2443C148.734 83.2443 148.379 83.1023 148.095 82.8183C143.055 77.7067 137.73 73.163 132.689 74.7249C132.05 74.9378 131.695 75.4348 131.482 75.7898C131.198 76.3577 131.198 76.9967 131.34 77.2807C131.482 77.7067 132.192 78.1326 132.973 78.0616C133.612 77.9906 134.038 77.6357 134.251 76.9257C134.464 76.1448 135.245 75.7188 136.026 75.9318C136.807 76.1448 137.233 76.9257 137.02 77.7067C136.452 79.5525 135.032 80.7594 133.186 80.9014C131.269 80.9724 129.424 79.9075 128.785 78.3456C128.359 77.2097 128.43 75.7898 128.998 74.5119C129.566 73.234 130.63 72.311 131.908 71.9561C134.961 70.9621 138.227 71.5301 141.777 73.6599C144.9 75.5058 147.811 78.2746 150.225 80.7594C150.793 81.3274 150.793 82.2503 150.225 82.7473C149.799 83.1023 149.444 83.2443 149.089 83.2443Z" fill="#AD843E"/>
<path fill-rule="evenodd" clip-rule="evenodd" d="M134.817 92.1167C133.823 92.1167 132.829 91.9748 131.835 91.6908C130.557 91.2648 129.492 90.3419 128.924 89.135C128.356 87.9281 128.285 86.4372 128.711 85.3012C129.35 83.7394 131.196 82.6034 133.113 82.7454C134.959 82.8164 136.45 84.0233 136.947 85.9402C137.16 86.7211 136.734 87.5021 135.953 87.7151C135.172 87.9281 134.391 87.5021 134.178 86.7211C133.965 86.0112 133.539 85.6562 132.9 85.5852C132.119 85.5142 131.48 85.9402 131.267 86.3662C131.125 86.7211 131.125 87.2891 131.409 87.857C131.551 88.212 131.906 88.709 132.616 88.922C137.657 90.4839 142.981 85.9402 148.022 80.8286C148.59 80.2606 149.442 80.2606 150.01 80.8286C150.578 81.3965 150.578 82.2485 150.01 82.8164C147.596 85.3012 144.685 88.0701 141.561 89.9159C139.219 91.4068 136.947 92.1167 134.817 92.1167Z" fill="#AD843E"/>
<path fill-rule="evenodd" clip-rule="evenodd" d="M166.981 123.782H166.911C166.13 123.711 165.562 123.072 165.562 122.291C165.562 122.22 166.059 114.481 162.438 110.648C161.16 109.228 159.456 108.589 157.326 108.589C155.338 108.589 153.563 109.299 152.357 110.577C151.15 111.855 150.511 113.559 150.511 115.475C150.511 118.315 152.854 120.658 155.693 120.658C157.823 120.658 159.598 118.954 159.598 116.753C159.598 115.191 158.32 113.913 156.758 113.913C155.977 113.913 155.338 113.275 155.338 112.494C155.338 111.713 155.977 111.074 156.758 111.074C159.882 111.074 162.438 113.63 162.438 116.753C162.438 120.445 159.385 123.498 155.693 123.498C151.221 123.498 147.671 119.877 147.671 115.475C147.671 112.849 148.594 110.435 150.369 108.66C152.144 106.814 154.628 105.82 157.397 105.82C160.308 105.82 162.722 106.814 164.568 108.802C168.969 113.559 168.472 122.22 168.401 122.575C168.401 123.214 167.762 123.782 166.981 123.782Z" fill="#AD843E"/>
<path fill-rule="evenodd" clip-rule="evenodd" d="M174.22 117.393C173.439 117.393 172.232 117.322 171.025 117.109C167.759 116.541 165.274 114.979 163.854 112.778C163.428 112.139 163.641 111.216 164.28 110.79C164.919 110.364 165.842 110.577 166.268 111.216C168.682 115.05 175.072 114.482 175.143 114.482C175.924 114.411 176.634 114.979 176.705 115.76C176.776 116.541 176.208 117.251 175.427 117.322C175.356 117.393 174.93 117.393 174.22 117.393Z" fill="#AD843E"/>
<path fill-rule="evenodd" clip-rule="evenodd" d="M131.2 123.782C130.49 123.782 129.851 123.214 129.78 122.433C129.78 122.078 129.212 113.417 133.613 108.66C135.459 106.672 137.873 105.678 140.784 105.678C143.553 105.678 146.038 106.672 147.812 108.518C149.516 110.293 150.51 112.707 150.51 115.334C150.51 119.806 146.89 123.356 142.488 123.356C138.796 123.356 135.743 120.303 135.743 116.612C135.743 113.488 138.299 110.932 141.423 110.932C142.204 110.932 142.843 111.571 142.843 112.352C142.843 113.133 142.204 113.772 141.423 113.772C139.861 113.772 138.583 115.05 138.583 116.612C138.583 118.742 140.287 120.516 142.488 120.516C145.328 120.516 147.67 118.174 147.67 115.334C147.67 113.417 147.032 111.713 145.825 110.435C144.547 109.157 142.843 108.447 140.855 108.447C138.725 108.447 137.092 109.157 135.743 110.506C132.194 114.34 132.62 122.007 132.62 122.078C132.691 122.859 132.052 123.569 131.271 123.569C131.271 123.782 131.2 123.782 131.2 123.782Z" fill="#AD843E"/>
<path fill-rule="evenodd" clip-rule="evenodd" d="M123.956 117.393C123.246 117.393 122.82 117.322 122.749 117.322C121.968 117.251 121.4 116.541 121.471 115.76C121.542 114.979 122.252 114.411 123.033 114.482C123.104 114.482 129.493 115.05 131.907 111.216C132.333 110.577 133.185 110.364 133.895 110.79C134.534 111.216 134.747 112.068 134.321 112.778C132.901 115.05 130.416 116.541 127.15 117.109C125.944 117.393 124.808 117.393 123.956 117.393Z" fill="#AD843E"/>
<path d="M309.111 236.733C308.33 236.733 307.691 236.591 307.123 236.308C306.626 236.024 306.2 235.669 305.916 235.172C305.632 234.746 305.419 234.249 305.277 233.752C305.135 233.255 305.064 232.829 305.064 232.403V216.713C305.064 215.08 304.851 213.589 304.354 212.24C303.928 210.891 303.147 209.684 302.224 208.69C301.301 207.697 300.024 206.916 298.604 206.348C297.113 205.78 295.409 205.496 293.35 205.496C292.001 205.496 290.652 205.709 289.516 206.064C288.309 206.419 287.244 206.916 286.321 207.484C285.328 208.052 284.547 208.761 283.837 209.471C283.127 210.181 282.559 210.891 282.133 211.672C282.133 210.82 282.062 209.968 281.778 209.258C281.565 208.548 281.068 207.91 280.429 207.484C279.79 207.058 278.796 206.774 277.518 206.774H273.045V208.406H274.607C275.53 208.406 276.24 208.619 276.737 208.974C277.234 209.329 277.518 209.826 277.731 210.394C277.873 210.962 277.944 211.53 277.944 212.027V233.894C277.944 234.533 277.731 235.03 277.447 235.527C277.092 235.953 276.737 236.307 276.24 236.52C275.743 236.733 275.317 236.875 274.891 236.875H273.116V238.65H286.392V236.875H285.044C284.405 236.875 283.908 236.662 283.553 236.378C283.127 236.024 282.914 235.598 282.701 235.101C282.559 234.604 282.417 234.036 282.417 233.539V222.463C282.417 220.334 282.701 218.417 283.198 216.784C283.695 215.08 284.476 213.66 285.399 212.524C286.321 211.388 287.457 210.465 288.664 209.826C289.942 209.187 291.291 208.903 292.711 208.903C294.344 208.903 295.764 209.187 296.971 209.826C298.107 210.465 299.03 211.53 299.669 212.879C300.307 214.299 300.591 216.145 300.591 218.417V232.616C300.591 233.681 300.733 234.675 301.088 235.598C301.443 236.52 302.011 237.23 302.721 237.798C303.502 238.366 304.425 238.65 305.632 238.65H309.963V236.875H309.111V236.733ZM236.057 222.605C236.057 224.238 236.27 225.871 236.625 227.433C236.98 229.066 237.619 230.557 238.471 232.048C239.323 233.539 240.388 234.817 241.666 235.953C242.944 237.088 244.505 238.011 246.351 238.65C248.197 239.289 250.256 239.644 252.67 239.644C255.084 239.644 257.143 239.289 258.917 238.65C260.692 238.011 262.254 237.088 263.461 235.953C264.739 234.817 265.733 233.539 266.514 232.048C267.295 230.557 267.863 229.066 268.218 227.433C268.573 225.8 268.715 224.167 268.715 222.605C268.715 220.973 268.573 219.34 268.218 217.636C267.863 216.003 267.366 214.37 266.656 212.879C265.946 211.388 264.952 210.039 263.674 208.903C262.467 207.697 260.905 206.774 259.059 206.135C257.214 205.425 255.084 205.07 252.599 205.07C250.043 205.07 247.771 205.425 245.925 206.135C244.08 206.774 242.447 207.697 241.169 208.903C239.891 210.11 238.897 211.388 238.116 212.879C237.335 214.37 236.838 215.932 236.483 217.636C236.199 219.269 235.986 220.973 236.057 222.605ZM240.601 222.605C240.601 221.257 240.743 219.979 240.956 218.63C241.169 217.281 241.595 216.003 242.163 214.725C242.731 213.447 243.441 212.382 244.363 211.388C245.286 210.394 246.422 209.613 247.771 209.045C249.12 208.477 250.753 208.193 252.599 208.193C254.445 208.193 256.007 208.477 257.356 209.045C258.704 209.613 259.769 210.323 260.692 211.317C261.544 212.24 262.254 213.376 262.822 214.583C263.319 215.79 263.674 217.139 263.958 218.488C264.171 219.837 264.313 221.257 264.313 222.676C264.313 224.451 264.1 226.155 263.674 227.788C263.248 229.421 262.609 230.912 261.686 232.261C260.763 233.61 259.556 234.675 258.137 235.456C256.646 236.236 254.871 236.662 252.741 236.662C250.54 236.662 248.694 236.236 247.132 235.456C245.57 234.675 244.363 233.61 243.441 232.261C242.518 230.912 241.808 229.421 241.382 227.788C240.814 226.013 240.601 224.309 240.601 222.605ZM225.55 196.479C225.55 195.272 225.408 194.279 225.124 193.498C224.84 192.717 224.343 192.078 223.633 191.723C222.923 191.297 222 191.084 220.793 191.084H215.682V192.859H217.456C218.308 192.859 218.947 193.001 219.444 193.285C219.941 193.569 220.296 193.924 220.509 194.279C220.722 194.704 220.864 195.13 220.935 195.627C221.006 196.124 221.006 196.55 221.006 196.976V210.536C220.438 209.613 219.657 208.832 218.592 208.123C217.527 207.413 216.391 206.916 214.972 206.561C213.623 206.206 212.203 205.993 210.712 205.993C208.369 205.993 206.31 206.348 204.535 206.987C202.76 207.626 201.27 208.548 199.992 209.684C198.785 210.82 197.72 212.098 197.01 213.589C196.229 215.009 195.661 216.571 195.306 218.133C194.951 219.695 194.809 221.328 194.809 222.889C194.809 225.161 195.164 227.291 195.945 229.279C196.655 231.267 197.72 232.971 198.998 234.462C200.347 235.953 201.838 237.159 203.683 238.011C205.458 238.863 207.446 239.289 209.576 239.289C210.002 239.289 210.499 239.289 211.138 239.218C211.777 239.218 212.487 239.076 213.197 239.005C213.907 238.863 214.617 238.721 215.256 238.508C215.895 238.295 216.391 237.94 216.817 237.514C217.243 237.088 217.456 236.591 217.456 235.953C217.456 235.598 217.385 235.243 217.172 234.959C217.03 234.604 216.817 234.391 216.675 234.178C216.533 233.965 216.462 233.823 216.391 233.823C216.32 233.965 216.108 234.107 215.753 234.391C215.469 234.675 215.043 234.959 214.475 235.243C213.907 235.527 213.268 235.811 212.558 236.024C211.777 236.236 210.925 236.378 210.002 236.378C208.44 236.378 206.949 236.024 205.671 235.314C204.393 234.604 203.257 233.61 202.406 232.403C201.483 231.196 200.773 229.776 200.276 228.143C199.779 226.51 199.566 224.806 199.566 223.031C199.566 221.257 199.779 219.482 200.276 217.778C200.773 216.074 201.483 214.583 202.406 213.234C203.328 211.885 204.535 210.82 205.884 210.039C207.233 209.258 208.866 208.832 210.712 208.832C212.984 208.832 214.901 209.329 216.391 210.323C217.882 211.317 219.018 212.666 219.799 214.441C220.58 216.145 220.935 218.204 220.935 220.405V233.042C220.935 233.965 221.077 234.817 221.432 235.456C221.716 236.095 222.142 236.662 222.639 237.159C223.136 237.585 223.704 237.94 224.272 238.153C224.84 238.366 225.479 238.437 226.047 238.437H231.016V236.662H229.029C228.248 236.662 227.609 236.449 227.112 236.024C226.615 235.598 226.26 235.101 225.976 234.462C225.692 233.823 225.621 233.113 225.621 232.261V196.479H225.55ZM184.373 205.638C183.237 205.638 182.101 205.922 180.965 206.419C179.9 206.916 178.906 207.555 178.054 208.406C177.202 209.258 176.492 210.181 176.066 211.175C175.995 209.684 175.569 208.619 174.788 207.839C174.079 207.058 172.943 206.703 171.523 206.703H166.766V208.477H168.328C168.896 208.477 169.464 208.619 169.961 208.832C170.458 209.045 170.813 209.471 171.168 210.11C171.452 210.678 171.594 211.53 171.665 212.595V233.113C171.665 233.468 171.665 233.823 171.523 234.249C171.452 234.675 171.31 235.03 171.097 235.456C170.884 235.811 170.6 236.165 170.174 236.378C169.748 236.591 169.251 236.733 168.612 236.733H166.766V238.508H180.042V236.733H179.048C178.267 236.733 177.628 236.52 177.202 236.094C176.776 235.669 176.492 235.172 176.279 234.533C176.137 233.894 176.066 233.255 176.066 232.616V221.541C176.066 219.766 176.279 218.133 176.634 216.571C176.989 215.009 177.557 213.589 178.267 212.382C178.977 211.175 179.829 210.181 180.823 209.471C181.817 208.761 182.882 208.406 184.16 208.406C185.083 208.406 185.864 208.619 186.432 208.974C187 209.329 187.426 209.826 187.71 210.394C187.994 210.962 188.136 211.601 188.136 212.311C188.136 212.595 188.065 212.95 187.994 213.305C187.923 213.66 187.781 214.015 187.639 214.299C187.497 214.583 187.426 214.725 187.284 214.867C187.284 214.867 187.355 214.938 187.426 215.08C187.568 215.222 187.71 215.364 187.994 215.506C188.278 215.648 188.632 215.719 189.129 215.719C189.768 215.719 190.336 215.506 190.762 215.151C191.188 214.796 191.543 214.299 191.756 213.731C191.969 213.163 192.04 212.595 192.04 212.027C192.04 210.82 191.827 209.755 191.33 208.832C190.833 207.91 189.981 207.129 188.916 206.561C187.71 205.993 186.219 205.709 184.373 205.638ZM130.559 222.605C130.559 224.238 130.772 225.871 131.127 227.433C131.482 229.066 132.121 230.557 132.972 232.048C133.824 233.539 134.889 234.817 136.167 235.953C137.445 237.088 139.007 238.011 140.853 238.65C142.699 239.289 144.758 239.644 147.171 239.644C149.585 239.644 151.644 239.289 153.419 238.65C155.194 238.011 156.756 237.088 157.963 235.953C159.241 234.817 160.235 233.539 161.015 232.048C161.796 230.557 162.364 229.066 162.719 227.433C163.074 225.8 163.216 224.167 163.216 222.605C163.216 220.973 163.074 219.34 162.719 217.636C162.364 216.003 161.867 214.37 161.157 212.879C160.448 211.388 159.454 210.039 158.176 208.903C156.969 207.697 155.407 206.774 153.561 206.135C151.715 205.425 149.585 205.07 147.1 205.07C144.545 205.07 142.273 205.425 140.427 206.135C138.581 206.774 136.948 207.697 135.67 208.903C134.392 210.11 133.398 211.388 132.618 212.879C131.837 214.37 131.34 215.932 130.985 217.636C130.701 219.269 130.559 220.973 130.559 222.605ZM135.173 222.605C135.173 221.257 135.315 219.979 135.528 218.63C135.741 217.281 136.167 216.003 136.735 214.725C137.303 213.447 138.013 212.382 138.936 211.388C139.859 210.394 140.995 209.613 142.344 209.045C143.693 208.477 145.326 208.193 147.171 208.193C149.017 208.193 150.579 208.477 151.928 209.045C153.277 209.613 154.342 210.323 155.265 211.317C156.117 212.24 156.827 213.376 157.395 214.583C157.892 215.79 158.247 217.139 158.531 218.488C158.744 219.837 158.886 221.257 158.886 222.676C158.886 224.451 158.673 226.155 158.247 227.788C157.821 229.421 157.182 230.912 156.259 232.261C155.336 233.61 154.129 234.675 152.709 235.456C151.218 236.236 149.443 236.662 147.313 236.662C145.113 236.662 143.267 236.236 141.705 235.456C140.143 234.675 138.936 233.61 138.013 232.261C137.09 230.912 136.38 229.421 135.954 227.788C135.315 226.013 135.102 224.309 135.173 222.605ZM105.355 239.573C106.775 239.573 108.053 239.502 109.047 239.431C110.041 239.36 110.964 239.289 111.745 239.147C112.526 239.076 113.307 238.934 114.159 238.863C114.94 238.721 115.863 238.65 116.857 238.579C117.851 238.508 119.057 238.437 120.477 238.437H124.524V236.449H123.459C122.82 236.449 122.323 236.236 122.039 235.882C121.684 235.527 121.471 235.03 121.329 234.462C121.187 233.894 121.116 233.326 121.045 232.758C121.045 232.19 120.974 231.693 121.045 231.338V223.244C121.045 222.534 121.187 221.896 121.4 221.47C121.613 220.973 121.897 220.618 122.323 220.405C122.678 220.192 123.104 220.05 123.459 220.05H126.512V217.92H109.26V220.05H112.242C113.378 220.05 114.23 220.263 114.798 220.618C115.366 220.973 115.721 221.47 115.934 221.967C116.147 222.534 116.218 223.031 116.147 223.599V231.054C116.147 232.9 115.295 234.178 113.733 235.03C112.171 235.811 109.899 236.236 106.917 236.166C105.639 236.166 104.22 236.024 102.8 235.669C101.38 235.385 99.9599 234.888 98.54 234.178C97.1201 233.539 95.7712 232.616 94.4933 231.551C93.2153 230.486 92.0794 229.208 91.0855 227.717C90.0916 226.226 89.3106 224.522 88.7427 222.534C88.1747 220.547 87.8907 218.346 87.8907 215.932C87.8907 213.66 88.1747 211.53 88.7427 209.471C89.3106 207.413 90.1626 205.496 91.2275 203.721C92.2924 201.946 93.6413 200.455 95.2742 199.177C96.9071 197.899 98.682 196.905 100.812 196.124C102.871 195.414 105.213 195.059 107.698 195.059C109.757 195.059 111.461 195.343 112.739 195.84C114.017 196.337 115.011 197.118 115.721 198.041C116.431 199.035 116.857 200.171 117.141 201.52C117.425 202.869 117.496 204.36 117.496 205.993C117.851 205.993 118.277 205.922 118.774 205.78C119.27 205.638 119.767 205.354 120.264 204.928C120.761 204.502 121.116 203.934 121.471 203.153C121.826 202.372 121.968 201.378 121.968 200.1C121.968 198.325 121.542 196.834 120.619 195.698C119.767 194.562 118.632 193.782 117.141 193.214C115.65 192.646 113.946 192.291 112.029 192.078C110.112 191.865 108.124 191.794 105.994 191.794C104.362 191.794 102.658 191.936 100.883 192.291C99.1079 192.646 97.333 193.214 95.5582 193.995C93.7833 194.775 92.1504 195.769 90.5885 197.047C89.0266 198.325 87.6068 199.816 86.3998 201.591C85.1929 203.366 84.199 205.425 83.56 207.839C82.8501 210.181 82.4951 212.879 82.4951 215.861C82.4951 218.488 82.8501 221.044 83.56 223.386C84.27 225.729 85.3349 227.93 86.6128 229.847C87.9617 231.835 89.5946 233.468 91.4405 234.888C93.3573 236.308 95.4872 237.372 97.83 238.153C100.031 239.147 102.587 239.573 105.355 239.573Z" fill="#AD843E"/>
<path d="M61.6236 229.209C62.3335 229.209 62.9015 229.209 63.3984 229.138C63.8954 229.067 64.3214 228.996 64.6054 228.783C64.8894 228.57 65.1733 228.215 65.3153 227.789C65.4573 227.292 65.5283 226.653 65.5283 225.801C65.5283 224.381 65.3153 223.104 64.8183 221.968C64.3214 220.832 63.6824 219.838 62.8305 218.986C61.9786 218.134 60.9846 217.495 59.8487 216.998C58.7128 216.572 57.4349 216.288 56.015 216.288C54.1691 216.288 52.5362 216.643 51.1163 217.211C49.6964 217.85 48.5605 218.702 47.5666 219.838C46.6437 220.974 45.9337 222.252 45.4367 223.742C44.9398 225.233 44.7268 226.795 44.7268 228.57C44.7268 229.635 44.8688 230.7 45.0818 231.765C45.3658 232.83 45.7207 233.824 46.2887 234.818C46.8566 235.812 47.5666 236.664 48.3475 237.444C49.1995 238.225 50.1934 238.793 51.4003 239.29C52.6072 239.716 53.9561 239.929 55.447 240C56.9379 240 58.2868 239.858 59.3517 239.574C60.4167 239.29 61.3396 239.006 62.0495 238.58C62.7595 238.154 63.2565 237.657 63.6114 237.16C63.9664 236.664 64.1084 236.167 64.1084 235.599C64.1084 235.386 64.0374 235.173 63.8954 234.96C63.7534 234.747 63.6114 234.534 63.3984 234.321C63.1855 234.108 62.9725 233.966 62.6885 233.895C62.4755 234.321 62.1205 234.747 61.7656 235.173C61.4106 235.67 60.9136 236.096 60.3457 236.522C59.7777 236.948 59.0678 237.302 58.2868 237.586C57.4349 237.87 56.512 238.012 55.376 238.012C54.2401 238.012 53.1752 237.728 52.2523 237.231C51.3293 236.735 50.5484 236.025 49.8384 235.102C49.1995 234.179 48.6315 233.185 48.2765 232.12C47.9216 230.984 47.7086 229.848 47.7086 228.712C47.7086 227.718 47.7796 226.653 47.9926 225.659C48.2055 224.665 48.4895 223.742 48.9155 222.891C49.3415 222.039 49.8384 221.258 50.4774 220.619C51.1163 219.98 51.8263 219.412 52.6782 219.057C53.5302 218.702 54.5241 218.489 55.589 218.489C56.7249 218.489 57.7189 218.702 58.4998 219.128C59.3517 219.554 59.9907 220.122 60.5587 220.761C61.1266 221.471 61.4816 222.252 61.7656 223.175C62.0496 224.097 62.1205 225.02 62.1205 226.014C62.1205 226.511 61.9786 226.795 61.7656 227.008C61.5526 227.221 61.1976 227.292 60.7007 227.292H55.0211C54.5241 227.292 54.0271 227.292 53.5302 227.292C53.0332 227.292 52.6072 227.363 52.2523 227.434C51.8263 227.505 51.5423 227.647 51.3293 227.86C51.1163 228.073 50.9743 228.357 50.9743 228.712C50.9743 228.783 50.9743 228.925 51.0453 229.138C51.1163 229.351 51.1163 229.564 51.2583 229.777C51.3293 229.99 51.4713 230.132 51.5423 230.274C51.8263 230.061 52.1103 229.919 52.4652 229.848C52.7492 229.706 53.1042 229.635 53.5302 229.564C53.9561 229.493 54.5241 229.422 55.163 229.422C55.802 229.422 56.6539 229.351 57.6479 229.351C58.9258 229.209 60.1327 229.209 61.6236 229.209ZM41.1061 238.154C40.5381 238.154 40.0411 238.012 39.6862 237.728C39.3312 237.444 39.0472 237.16 38.9052 236.735C38.7632 236.309 38.6922 235.954 38.6922 235.599V224.381C38.6922 222.678 38.4082 221.258 37.7693 220.193C37.1303 219.057 36.2074 218.205 35.0005 217.637C33.7936 217.069 32.3737 216.785 30.5988 216.785C29.3919 216.785 28.256 216.998 27.262 217.353C26.2681 217.708 25.3452 218.205 24.6352 218.773C23.9253 219.341 23.2863 220.051 22.8604 220.761V209.898C22.8604 208.976 22.5764 208.195 22.0794 207.627C21.5825 207.059 20.7305 206.775 19.6656 206.775H16.3998V207.982H17.6777C18.1747 207.982 18.5297 208.124 18.8137 208.337C19.0976 208.55 19.3106 208.905 19.4526 209.259C19.5946 209.614 19.6656 209.969 19.6656 210.395V236.167C19.6656 236.451 19.5946 236.735 19.5236 237.019C19.3816 237.302 19.1686 237.586 18.8137 237.799C18.4587 238.012 18.0327 238.154 17.3938 238.154H16.3998V239.361H25.5582V238.154H24.7772C24.4932 238.154 24.2093 238.083 23.8543 237.87C23.5703 237.728 23.2863 237.444 23.1443 237.089C22.9314 236.735 22.8604 236.309 22.8604 235.812V227.86C22.8604 226.724 23.0024 225.659 23.3573 224.594C23.6413 223.529 24.1383 222.607 24.7772 221.755C25.4162 220.903 26.1261 220.264 27.0491 219.767C27.972 219.27 28.9659 219.057 30.1728 218.986C31.2378 218.986 32.2317 219.199 33.0126 219.625C33.7936 220.051 34.4325 220.761 34.8585 221.684C35.2845 222.607 35.4975 223.813 35.4975 225.304V235.67C35.4975 236.096 35.5685 236.522 35.6394 236.947C35.7814 237.373 35.9234 237.799 36.1364 238.154C36.3494 238.509 36.7044 238.864 37.1303 239.077C37.5563 239.29 38.0533 239.432 38.6922 239.432H41.958V238.225H41.1061V238.154ZM12.4951 234.676C12.4951 234.676 12.4951 234.818 12.4241 235.031C12.3531 235.244 12.2821 235.528 12.1401 235.812C11.9981 236.096 11.7852 236.451 11.5722 236.735C11.3592 237.018 11.0042 237.302 10.6492 237.515C10.2943 237.728 9.8683 237.799 9.37133 237.87C8.80337 237.87 8.3064 237.728 7.88043 237.444C7.52546 237.16 7.17049 236.806 6.9575 236.309C6.74452 235.812 6.60253 235.244 6.53153 234.676C6.46054 234.037 6.38954 233.398 6.38954 232.759V219.341H10.8622C11.8562 219.341 12.6371 219.128 13.1341 218.773C13.631 218.418 13.915 217.992 13.915 217.424C13.915 216.998 13.773 216.714 13.489 216.501C13.2051 216.288 12.9211 216.146 12.4951 216.075C12.4951 216.217 12.4241 216.359 12.2821 216.572C12.1401 216.714 11.8561 216.927 11.4302 217.069C11.0042 217.211 10.3653 217.353 9.58431 217.495C8.73237 217.637 7.66745 217.637 6.31855 217.637V213.377H4.54367C4.54367 214.3 4.40169 215.01 4.11771 215.578C3.90472 216.146 3.54975 216.572 3.19477 216.856C2.7688 217.14 2.34283 217.353 1.77487 217.495C1.20691 217.637 0.638954 217.637 0 217.637V219.341H3.33676V232.759C3.33676 234.108 3.47875 235.244 3.83373 236.167C4.11771 237.09 4.54368 237.799 5.11164 238.438C5.6086 239.006 6.24756 239.432 6.88651 239.645C7.52546 239.929 8.23541 240 9.01636 240C10.0813 240 10.9332 239.858 11.7142 239.503C12.4951 239.148 13.0631 238.793 13.489 238.225C13.915 237.728 14.128 237.16 14.128 236.593C14.128 236.167 14.057 235.812 13.844 235.599C13.702 235.386 13.489 235.173 13.2761 235.031C13.0631 234.889 12.8501 234.818 12.7081 234.818C12.5661 234.676 12.4951 234.676 12.4951 234.676Z" fill="#AD843E"/>
</svg>
